<?xml version="1.0" encoding="iso-8859-1"?>
<!-- Generator: Adobe Illustrator 19.0.0, SVG Export Plug-In . SVG Version: 6.00 Build 0)  -->
<svg version="1.1" id="Layer_1" xmlns="http://www.w3.org/2000/svg" xmlns:xlink="http://www.w3.org/1999/xlink" x="0px" y="0px"
	 viewBox="0 0 512 512" style="enable-background:new 0 0 512 512;" xml:space="preserve">
<g>
	<g>
		<g>
			<path d="M499.089,117.698c-0.009-0.009-0.015-0.018-0.022-0.025c-0.005-0.005-0.01-0.009-0.014-0.014
				c-0.001-0.001-0.003-0.003-0.004-0.005c-0.003-0.003-0.005-0.005-0.008-0.008c-0.01-0.01-0.02-0.019-0.03-0.029
				c-0.008-0.007-0.015-0.016-0.022-0.025L455.168,74.65V43.532c0-10.345-8.387-18.732-18.732-18.732H75.564
				c-10.345,0-18.732,8.387-18.732,18.732V74.65l-43.818,42.944c-0.008,0.007-0.015,0.016-0.022,0.025
				c-0.01,0.01-0.02,0.019-0.03,0.029c-0.003,0.003-0.005,0.005-0.008,0.008c-0.001,0.001-0.003,0.003-0.004,0.005
				c-0.005,0.005-0.01,0.009-0.014,0.014c-0.009,0.009-0.015,0.017-0.024,0.025C4.586,125.953,0,136.963,0,148.705v294.787
				c0,24.1,19.607,43.707,43.707,43.707h424.585c24.1,0,43.707-19.607,43.707-43.707V148.705
				C512,136.963,507.414,125.953,499.089,117.698z M94.295,62.264h323.409c0,10.953,0,98.374,0,109.292L256,330.036L94.295,171.555
				C94.295,160.637,94.295,73.218,94.295,62.264z M474.537,443.492c0,3.443-2.801,6.244-6.244,6.244H43.707
				c-3.443,0-6.244-2.801-6.244-6.244V168.313c9.047,8.868,196.488,192.571,205.424,201.33c7.284,7.138,18.939,7.138,26.223,0
				c8.938-8.759,196.378-192.463,205.426-201.33V443.492z"/>
			<path d="M212.512,135.213h86.975c10.345,0,18.732-8.387,18.732-18.732s-8.387-18.732-18.732-18.732h-86.975
				c-10.345,0-18.732,8.387-18.732,18.732C193.781,126.827,202.168,135.213,212.512,135.213z"/>
			<path d="M364.631,187.911c0-10.345-8.387-18.732-18.732-18.732H166.102c-10.345,0-18.732,8.387-18.732,18.732
				s8.387,18.732,18.732,18.732H345.9C356.245,206.643,364.631,198.256,364.631,187.911z"/>
		</g>
	</g>
</g>
<g>
</g>
<g>
</g>
<g>
</g>
<g>
</g>
<g>
</g>
<g>
</g>
<g>
</g>
<g>
</g>
<g>
</g>
<g>
</g>
<g>
</g>
<g>
</g>
<g>
</g>
<g>
</g>
<g>
</g>
</svg>
