<?xml version="1.0" standalone="no"?>
<!DOCTYPE svg PUBLIC "-//W3C//DTD SVG 20010904//EN"
 "http://www.w3.org/TR/2001/REC-SVG-20010904/DTD/svg10.dtd">
<svg version="1.0" xmlns="http://www.w3.org/2000/svg"
 width="800.000000pt" height="500.000000pt" viewBox="0 0 800.000000 500.000000"
 preserveAspectRatio="xMidYMid meet">
<metadata>
Created by potrace 1.16, written by Peter Selinger 2001-2019
</metadata>
<g transform="translate(0.000000,500.000000) scale(0.100000,-0.100000)"
fill="#000000" stroke="none">
<path d="M723 4813 c0 -183 -8 -321 -18 -331 -3 -3 -5 55 -6 129 -2 266 -17
56 -28 -411 -12 -465 -19 -569 -31 -460 -5 44 -7 34 -8 -50 0 -71 2 -98 9 -85
8 18 8 18 6 -4 -1 -16 -14 -30 -37 -43 -37 -20 -104 -21 -488 -2 l-122 6 0
-111 0 -111 78 -1 c42 -1 97 -3 122 -4 25 -2 331 -8 680 -14 349 -7 694 -14
765 -16 248 -8 641 -6 667 4 27 10 70 59 66 73 -2 6 -130 11 -288 13 -611 8
-1114 25 -1122 38 -4 6 -9 221 -10 477 -4 708 -3 650 -17 650 -5 0 -11 -9 -14
-20 -9 -35 -27 -21 -29 23 -4 112 7 384 17 416 5 18 2 21 -23 21 l-29 0 -7
-252 c-4 -139 -9 -275 -10 -303 -1 -27 -3 -77 -4 -110 -4 -101 -25 -37 -24 74
0 53 -2 103 -4 112 -4 16 -34 23 -34 7 0 -20 -28 -6 -29 15 -3 110 -1 372 4
410 6 42 5 47 -13 47 -18 0 -19 -8 -19 -187z"/>
<path d="M3040 4983 c-1 -10 -3 -85 -6 -168 -4 -102 -2 -147 4 -140 6 6 12 28
14 50 2 22 5 -32 6 -120 1 -90 -2 -167 -8 -175 -7 -11 -10 -7 -11 20 -1 19 -5
-21 -9 -90 -4 -69 -4 -132 1 -140 5 -8 9 -11 9 -6 0 5 11 -3 25 -18 30 -32 43
-33 49 -3 3 12 7 199 10 415 l5 392 -45 0 c-35 0 -44 -4 -44 -17z"/>
<path d="M7311 4958 c1 -24 -4 -95 -10 -158 -8 -73 -10 -176 -6 -280 6 -169
-27 -1179 -40 -1199 -3 -6 -12 -11 -18 -11 -9 0 -9 2 -1 8 13 8 19 84 15 182
-2 49 -5 59 -11 40 -5 -15 -8 31 -9 119 -1 79 -4 142 -7 139 -6 -6 -9 -98 -19
-568 -3 -168 -8 -393 -11 -500 -2 -107 -6 -431 -9 -720 -3 -289 -8 -537 -11
-553 -5 -25 -10 -27 -50 -27 -48 0 -237 19 -242 25 -2 2 14 27 36 57 22 29 44
62 50 73 17 34 52 143 52 164 0 11 5 23 10 26 6 3 10 16 10 28 -1 22 -1 22
-15 3 -8 -11 -15 -26 -15 -35 0 -8 -8 -22 -17 -31 -16 -15 -20 -14 -50 19 -18
20 -33 42 -33 49 0 6 -4 12 -8 12 -10 0 -45 70 -62 123 -6 20 -16 37 -21 37
-6 0 -17 7 -25 15 -9 8 -30 15 -47 15 -18 0 -47 4 -64 9 -48 14 -70 4 -98 -45
-14 -24 -32 -44 -39 -44 -8 0 -19 -6 -25 -14 -17 -20 -116 -10 -158 16 -18 11
-33 16 -34 11 0 -4 -4 1 -9 13 -9 22 -58 38 -84 28 -8 -3 -28 1 -44 10 -19 10
-56 15 -107 15 -52 0 -80 4 -86 12 -6 10 -18 6 -48 -15 -23 -16 -41 -34 -41
-40 0 -6 -5 -4 -10 4 -5 8 -10 10 -10 4 0 -7 -7 -15 -16 -18 -14 -5 -16 -1
-11 29 4 22 2 35 -5 35 -7 0 -9 -34 -6 -107 6 -119 33 -216 84 -299 59 -96 58
-89 14 -92 -22 -2 -40 -6 -40 -10 0 -4 13 -29 28 -56 l27 -49 74 1 c76 1 114
-12 170 -56 l23 -19 -32 -36 c-18 -21 -45 -45 -61 -54 -16 -10 -28 -22 -26
-27 3 -10 141 -9 182 2 15 4 66 4 113 -1 71 -7 91 -6 123 8 20 10 42 14 49 10
6 -4 52 -7 102 -6 74 0 92 3 103 18 11 14 25 17 83 15 54 -3 72 0 79 11 5 10
40 19 108 27 97 12 100 11 114 -9 18 -27 41 -26 68 3 24 25 73 25 73 0 0 -7
12 -17 28 -20 15 -4 35 -14 45 -22 15 -13 22 -14 38 -4 12 8 78 14 177 18 86
3 193 6 237 8 44 2 88 -1 98 -6 12 -6 23 -6 31 1 9 7 16 7 24 -1 9 -9 12 0 12
38 l0 50 -152 13 c-370 31 -430 38 -439 52 -6 10 -30 14 -77 14 l-69 0 -6 65
c-3 36 -1 261 3 500 5 239 9 573 10 742 l0 307 47 21 c26 12 61 20 78 18 25
-2 31 -8 35 -33 3 -25 5 -21 10 20 l5 50 278 3 277 2 0 160 0 160 -162 0
c-183 1 -205 7 -194 57 12 52 16 296 5 309 -5 7 -9 23 -8 36 4 45 -1 251 -6
246 -3 -3 -9 -147 -13 -321 -5 -174 -11 -320 -15 -323 -4 -4 -10 -5 -13 -1 -3
3 -5 353 -5 776 l2 771 -141 0 -141 0 2 -42z"/>
<path d="M6337 4713 c-71 -6 -132 -14 -135 -19 -4 -4 7 -4 24 -1 23 4 31 2 31
-9 0 -8 -6 -13 -13 -10 -8 3 -25 -1 -39 -8 -22 -12 -7 -13 112 -9 76 2 175 6
219 9 81 6 82 6 86 35 l5 29 -81 -2 c-45 -2 -139 -8 -209 -15z"/>
<path d="M2880 4183 c-54 -12 -123 -20 -187 -23 -7 0 -13 -5 -13 -11 0 -7 10
-9 24 -5 27 7 56 -1 56 -15 0 -5 -7 -9 -15 -9 -8 0 -14 -6 -12 -12 1 -8 -12
-14 -35 -16 -50 -4 -48 -19 3 -29 40 -8 71 -35 56 -49 -9 -9 -54 -10 -97 -1
-32 6 -31 5 8 -9 23 -9 42 -22 42 -30 0 -20 -45 -28 -79 -15 -40 17 -83 5 -80
-23 2 -11 -1 -47 -5 -80 -12 -91 1 -169 38 -224 19 -29 40 -48 54 -50 13 -2
26 -10 29 -18 7 -20 40 -18 51 4 14 26 12 140 -4 185 -8 22 -14 47 -14 56 0
18 42 71 57 71 5 0 26 -16 46 -35 20 -19 47 -35 60 -35 29 1 63 46 48 64 -15
17 0 56 28 76 22 15 28 40 10 40 -5 0 -7 5 -4 11 13 19 -4 59 -25 59 -11 0
-20 5 -20 10 0 6 8 10 18 10 9 0 31 9 48 19 17 10 50 22 73 26 35 6 40 9 30
22 -13 15 -59 37 -99 45 -14 3 -54 -1 -90 -9z"/>
<path d="M2483 4025 c-25 -18 -65 -99 -62 -129 0 -11 0 -23 -1 -26 -1 -3 -3
-45 -5 -95 -2 -49 -1 -82 2 -72 5 20 23 23 23 5 0 -7 7 -68 15 -135 12 -104
12 -130 1 -168 l-14 -45 53 0 c76 0 140 -38 216 -128 33 -40 63 -72 65 -69 11
10 -51 136 -84 170 -39 42 -102 76 -139 77 -19 0 -21 4 -17 43 l4 42 -16 -43
c-9 -23 -24 -47 -34 -52 -18 -10 -18 -9 -4 26 9 22 16 68 16 113 0 74 0 75 13
41 13 -34 14 -34 14 -8 2 57 -23 169 -36 164 -26 -10 -29 124 -4 202 10 29 20
42 32 42 18 0 39 27 39 51 0 8 -4 8 -15 -1 -11 -9 -19 -9 -28 -2 -10 9 -19 8
-34 -3z"/>
<path d="M4706 3884 c-16 -19 -31 -32 -34 -29 -3 2 2 13 11 23 10 10 14 22 10
26 -8 8 -53 -42 -53 -60 0 -7 -9 -22 -21 -33 -18 -16 -20 -26 -13 -66 3 -26
15 -56 26 -67 11 -11 18 -29 17 -41 -2 -30 11 -86 23 -93 5 -3 8 2 6 12 -2 12
6 23 20 29 12 5 22 18 22 27 0 10 7 18 15 18 17 0 20 36 6 73 -7 18 -6 30 5
45 7 11 16 31 18 44 3 12 5 23 6 23 0 0 2 21 3 48 2 26 0 47 -4 47 -4 0 -13 2
-21 4 -7 3 -26 -11 -42 -30z"/>
<path d="M5477 3858 c-7 -27 -20 -303 -21 -440 -1 -107 9 -126 48 -89 21 19
21 25 15 258 -4 189 -9 244 -21 266 -15 28 -16 28 -21 5z"/>
<path d="M2950 3544 c0 -5 9 -17 20 -27 11 -9 20 -23 20 -30 0 -8 9 -22 20
-32 19 -17 20 -17 40 6 l21 24 -7 -25 c-4 -14 -24 -58 -45 -99 -22 -40 -39
-75 -39 -77 0 -2 27 -4 60 -4 l60 0 0 99 c0 70 -4 101 -12 105 -7 3 12 4 42 2
30 -2 64 0 75 5 16 6 13 8 -15 9 -19 0 -66 10 -105 21 -95 27 -135 33 -135 23z"/>
<path d="M4632 3445 c-7 -14 -18 -25 -24 -24 -7 1 -25 -3 -39 -10 -26 -13 -26
-13 50 -52 87 -46 131 -84 131 -115 0 -25 32 -69 62 -85 12 -7 18 -7 14 -1 -3
6 -8 32 -11 58 -12 120 -56 202 -127 240 -37 19 -43 18 -56 -11z"/>
<path d="M5297 3290 c-152 -46 -169 -255 -28 -340 36 -22 41 -29 39 -60 -3
-70 28 -83 34 -15 2 29 -1 45 -8 45 -7 0 -14 9 -17 19 -3 11 -21 27 -41 35
-20 8 -39 23 -42 33 -5 15 -19 49 -32 76 -10 20 27 3 69 -33 31 -26 53 -38 64
-34 20 8 35 45 34 82 0 27 0 27 -11 5 -13 -28 -72 -33 -82 -7 -15 40 8 74 50
74 19 0 25 5 22 18 -2 11 -11 16 -23 14 -19 -4 -19 -3 2 20 12 12 25 35 28 51
8 30 -3 33 -58 17z"/>
<path d="M2934 3263 c-4 -10 -6 -22 -5 -26 1 -5 -3 -6 -8 -3 -10 6 -41 -36
-41 -56 0 -7 9 1 20 17 l20 30 0 -32 c0 -18 9 -47 20 -65 24 -40 26 -110 5
-187 l-14 -54 52 -46 c75 -67 136 -131 163 -173 31 -48 41 -53 65 -33 17 16
17 19 3 29 -10 8 -16 31 -17 68 -2 31 0 55 3 53 3 -2 12 0 20 5 11 7 9 14 -13
36 -17 17 -25 34 -22 43 12 31 10 36 -15 35 -58 -2 -124 -15 -138 -26 -13 -11
-14 -10 -4 9 29 54 -1 217 -58 312 -16 28 -27 58 -24 66 8 21 -2 19 -12 -2z"/>
<path d="M3988 3233 c-15 -18 -31 -53 -28 -63 1 -3 18 -10 38 -15 50 -14 54
-41 8 -60 -19 -8 -45 -15 -56 -15 -52 0 2 -29 65 -34 21 -2 13 -21 -11 -28
-37 -10 -51 -24 -57 -61 -3 -18 -14 -53 -25 -78 -27 -59 -34 -80 -37 -107 -8
-58 -62 -135 -185 -263 -126 -129 -128 -131 -147 -113 -58 55 -61 56 -93 34
-15 -11 -59 -54 -95 -95 -37 -41 -72 -75 -78 -75 -6 0 -7 3 -4 7 12 11 -25 43
-49 43 -31 0 -40 18 -12 22 17 3 12 5 -14 9 -31 4 -35 3 -25 -9 6 -8 -26 5
-72 29 -124 65 -131 69 -131 80 0 5 -7 9 -15 9 -8 0 -15 5 -15 10 0 6 -9 10
-21 10 -30 0 -149 82 -213 148 -31 32 -83 93 -116 137 -141 184 -171 196 -289
108 -25 -20 -30 -28 -20 -34 8 -5 10 -9 5 -9 -5 0 -2 -8 5 -17 29 -35 -94 42
-126 80 -73 85 -66 151 32 297 9 14 -14 -4 -51 -40 -49 -46 -78 -85 -102 -135
-37 -76 -41 -109 -20 -158 16 -40 37 -58 107 -97 61 -33 40 -41 -28 -10 -49
22 -52 20 -20 -11 17 -17 18 -21 5 -16 -40 14 -8 -33 47 -69 14 -9 24 -19 21
-21 -3 -3 -30 12 -61 32 -31 21 -58 35 -61 32 -7 -7 21 -60 40 -76 15 -13 22
-41 10 -41 -3 0 -12 7 -20 15 -17 17 -34 20 -34 5 0 -14 42 -50 52 -44 4 3 8
1 8 -5 0 -5 -6 -12 -12 -15 -7 -4 1 -4 19 -1 32 4 53 -8 33 -20 -18 -11 0 -25
31 -25 55 0 29 -16 -93 -57 -132 -44 -269 -69 -320 -59 -17 3 -53 0 -82 -9
-28 -8 -69 -19 -91 -25 -22 -5 -49 -16 -60 -24 -18 -14 -17 -15 15 -6 51 15
145 12 230 -6 41 -9 95 -17 119 -19 25 -2 50 -9 55 -17 22 -27 61 -35 164 -31
56 3 102 2 102 -1 0 -13 -89 -46 -150 -56 -101 -16 -168 -12 -317 17 -159 31
-203 31 -291 2 -76 -25 -70 -44 7 -24 35 10 59 11 71 5 9 -5 20 -7 22 -4 5 4
127 -57 203 -102 54 -32 43 -30 -71 11 -105 38 -143 45 -110 20 22 -17 14 -20
-13 -5 -21 11 -126 -5 -179 -27 -47 -19 -37 -23 26 -11 60 12 175 -7 150 -24
-8 -6 14 -7 57 -4 l70 6 -60 -25 c-33 -13 -66 -24 -74 -24 -8 -1 -64 -16 -125
-35 -61 -19 -144 -44 -185 -56 l-74 -21 5 -74 c6 -93 40 -166 108 -229 48 -45
196 -126 230 -126 29 0 30 -12 5 -32 -14 -11 -25 -28 -25 -39 0 -26 -16 -24
-36 6 -13 20 -19 23 -31 14 -7 -7 -15 -10 -16 -8 -2 2 -11 16 -20 31 -75 120
-271 83 -291 -54 -4 -27 -11 -48 -16 -48 -5 0 2 -17 16 -37 24 -36 25 -52 8
-97 -4 -11 0 -16 13 -16 11 0 34 -7 51 -16 26 -12 44 -14 94 -6 42 7 67 6 75
0 7 -6 28 -7 47 -4 34 6 34 8 32 51 -2 36 2 49 21 67 26 24 28 21 12 -18 -7
-21 -7 -40 3 -71 11 -38 16 -44 38 -41 17 2 24 8 22 20 -2 13 9 18 55 23 124
13 148 19 151 40 2 11 13 39 23 62 21 46 25 88 9 98 -26 16 3 20 162 20 158 1
182 3 273 29 55 15 134 30 175 33 l74 6 -53 -61 -53 -61 -67 -3 c-63 -3 -66
-4 -69 -29 -3 -26 -2 -26 47 -21 30 3 51 1 51 -5 0 -6 -13 -39 -29 -74 -16
-35 -41 -113 -55 -174 -31 -127 -80 -284 -102 -327 -12 -23 -13 -36 -6 -53 6
-13 8 -33 5 -46 -5 -18 -3 -21 10 -16 14 5 49 -5 167 -49 12 -5 10 -8 -7 -15
-36 -13 -28 -29 9 -18 18 5 34 9 36 9 2 0 1 4 -2 8 -3 5 8 16 24 25 21 13 31
28 36 55 12 73 196 402 224 402 9 0 -33 -168 -50 -200 -8 -15 -6 -26 6 -45 9
-14 21 -25 26 -25 5 0 2 -7 -6 -16 -9 -8 -16 -29 -16 -45 0 -21 -5 -29 -18
-29 -10 0 -22 4 -28 10 -5 5 -19 7 -32 4 -17 -5 -22 -14 -22 -38 0 -17 -6 -40
-14 -51 -7 -11 -19 -53 -26 -93 l-12 -73 -31 20 c-18 11 -33 29 -35 41 -2 11
-6 19 -10 16 -10 -5 -221 11 -254 19 -16 4 -28 13 -28 20 0 16 -59 26 -82 13
-13 -6 -18 -21 -18 -56 0 -27 -5 -53 -10 -58 -9 -9 -35 -185 -28 -188 52 -26
83 -35 108 -30 18 4 38 1 52 -8 43 -28 116 -47 146 -39 19 6 46 2 87 -11 45
-15 98 -21 217 -25 l157 -5 26 26 c14 14 32 26 40 26 19 0 19 14 0 30 -19 16
-19 30 0 30 8 0 14 -5 13 -11 -2 -7 18 -14 51 -16 40 -4 51 -2 46 8 -6 9 3 11
39 7 25 -3 46 -2 46 2 0 13 -69 21 -207 23 -90 1 -136 6 -144 15 -7 6 -19 12
-26 12 -26 0 -93 52 -93 72 0 16 4 18 23 12 12 -4 49 -8 82 -9 33 -1 87 -10
120 -19 37 -10 76 -14 102 -11 28 4 64 -1 111 -15 62 -19 80 -20 168 -12 118
10 159 27 159 62 0 23 -4 25 -65 31 -36 3 -74 11 -85 17 -11 7 -31 17 -45 22
-58 23 -105 59 -105 78 0 25 -70 82 -100 82 -12 0 -30 9 -39 19 -11 12 -38 21
-72 26 -30 3 -54 10 -54 14 0 19 49 51 79 51 48 0 68 15 75 57 11 62 74 214
122 299 138 240 177 321 211 433 39 133 51 241 34 293 -16 50 -101 128 -139
128 -34 0 -115 27 -229 75 -74 32 -298 85 -360 85 -13 0 -23 2 -23 5 0 3 16
26 37 52 39 52 79 131 75 151 -2 6 4 12 13 12 8 0 15 9 15 20 0 14 5 18 17 13
11 -4 14 -3 9 6 -5 7 0 21 10 33 10 11 19 27 19 36 0 10 6 16 13 14 15 -3 47
26 38 35 -3 3 -12 0 -21 -7 -13 -11 -15 -9 -12 10 2 13 17 34 33 47 29 23 60
32 49 13 -8 -12 15 -13 34 -1 7 5 10 14 7 20 -13 20 19 11 59 -19 88 -63 342
-219 368 -225 l27 -7 -6 -107 c-7 -118 6 -188 49 -252 30 -46 107 -96 159
-104 24 -4 69 -20 101 -36 43 -22 70 -30 105 -28 38 1 67 -8 145 -46 96 -46
98 -46 125 -30 28 18 61 54 62 68 0 4 -12 7 -27 8 -25 0 -25 1 -8 8 11 5 45
13 75 19 30 6 69 16 85 23 17 7 32 13 35 14 58 17 144 48 175 63 22 11 65 23
95 26 54 6 54 6 28 -9 -34 -19 -34 -20 -3 -23 21 -1 115 51 115 64 0 3 -31 3
-69 0 -49 -3 -71 -1 -75 7 -3 9 -5 9 -5 0 -1 -18 -21 -16 -21 2 0 8 9 15 19
15 11 0 27 13 36 28 9 15 30 35 46 44 34 20 38 38 8 38 -12 0 -91 -18 -177
-40 -143 -37 -157 -39 -179 -25 -12 9 -23 20 -23 25 0 6 -13 10 -28 10 -62 0
-143 58 -156 113 -7 30 3 37 81 57 39 10 43 14 49 50 9 56 39 99 82 117 55 23
284 4 404 -33 47 -15 92 -24 100 -22 7 3 20 18 28 32 19 36 4 46 -67 46 -77 0
-67 32 30 100 26 18 47 37 47 42 0 4 -13 32 -29 61 -16 28 -46 98 -66 155 -36
100 -39 104 -81 124 -27 12 -55 18 -72 15 -17 -3 -34 1 -45 11 -17 15 -20 15
-38 -8 -10 -14 -19 -33 -19 -42 0 -9 -7 -23 -15 -31 -8 -8 -11 -17 -8 -21 11
-11 -32 -6 -81 8 -26 8 -67 30 -91 50 -24 20 -46 36 -49 36 -6 0 -48 -88 -78
-165 -39 -102 -212 -415 -228 -415 -10 0 32 82 110 215 25 44 52 96 60 115 7
19 31 70 52 113 63 128 80 178 82 247 1 50 8 77 29 114 38 68 45 117 18 134
-24 14 -27 3 -10 -29 13 -25 -7 -76 -32 -82 -15 -4 -16 -1 -6 20 9 21 7 27
-15 46 -14 12 -28 30 -31 40 -4 9 -10 17 -15 17 -5 0 -16 -8 -24 -17z m-2677
-1820 c38 -23 43 -39 17 -63 -39 -36 -110 -38 -150 -2 -25 21 -22 37 8 61 32
26 86 27 125 4z"/>
<path d="M4935 3164 c-16 -13 -35 -29 -42 -34 -12 -10 -11 -52 8 -210 12 -102
24 -120 65 -93 16 10 25 13 21 6 -4 -7 7 -37 25 -70 27 -47 34 -54 36 -36 2
12 -2 31 -8 42 -9 19 -8 20 12 12 13 -5 22 -14 21 -20 -2 -6 4 -8 13 -4 13 5
15 2 9 -17 -5 -15 -4 -20 4 -16 16 10 14 20 -14 78 -14 28 -25 53 -25 54 0 1
14 5 30 9 30 7 41 24 18 26 -30 3 -64 -4 -77 -14 -8 -7 -17 -12 -20 -12 -3 0
-5 -4 -3 -10 2 -6 0 -6 -7 0 -7 8 -7 22 0 50 16 57 -8 286 -29 285 -4 0 -20
-12 -37 -26z"/>
<path d="M3833 2913 c-79 -88 -215 -281 -207 -294 24 -40 153 90 231 233 88
162 82 178 -24 61z"/>
<path d="M5690 2955 c0 -7 -3 -15 -7 -17 -9 -3 -82 -149 -107 -212 -9 -21 -16
-49 -16 -61 0 -27 -86 -254 -104 -275 -8 -8 -16 -22 -19 -30 -4 -12 -6 -11 -6
3 -1 22 -6 22 -31 -3 -16 -16 -18 -24 -9 -49 9 -24 19 -32 57 -41 26 -6 57
-14 70 -17 27 -7 48 9 66 51 7 17 27 63 44 101 35 78 73 195 90 270 7 28 19
79 28 115 24 96 28 144 12 157 -22 19 -68 24 -68 8z"/>
<path d="M1884 2604 c-33 -29 -110 -82 -269 -183 -155 -98 -161 -105 -65 -65
47 20 128 51 180 70 52 18 103 43 114 54 25 24 11 26 -33 4 -57 -28 -44 -8 23
34 40 27 68 53 76 72 17 41 9 45 -26 14z"/>
<path d="M4808 2308 c7 -7 12 -19 12 -28 0 -10 20 -39 45 -66 24 -27 45 -53
45 -57 0 -4 10 -21 22 -37 15 -21 18 -33 11 -42 -6 -7 -13 -33 -16 -58 -13
-129 -36 -198 -94 -287 -93 -144 -99 -155 -143 -238 -37 -71 -76 -187 -157
-466 -24 -83 -57 -139 -82 -139 -17 0 -38 -23 -42 -45 -3 -12 -14 -18 -34 -20
-40 -3 -85 -27 -122 -63 -15 -16 -39 -35 -53 -42 -14 -7 -42 -27 -62 -43 -40
-32 -68 -31 -68 2 0 29 -11 51 -25 51 -7 0 -15 6 -18 13 -2 6 -4 -2 -5 -20 0
-17 -8 -46 -17 -63 -9 -18 -23 -64 -31 -103 -12 -57 -13 -72 -2 -79 9 -6 5 -7
-9 -3 -28 8 -30 -10 -6 -37 15 -17 15 -19 -3 -34 -13 -11 -15 -17 -6 -20 6 -3
12 -11 12 -18 0 -8 9 -25 21 -40 14 -18 16 -26 7 -26 -7 -1 0 -11 16 -24 16
-13 26 -28 22 -34 -3 -6 -2 -13 2 -16 5 -3 7 -16 5 -30 -5 -22 -2 -24 29 -23
23 1 41 -6 56 -21 23 -23 42 -26 105 -15 33 5 38 9 32 27 -23 79 -16 98 43
119 79 27 153 37 159 21 3 -8 15 -14 28 -14 13 0 26 -7 29 -16 5 -12 1 -14
-15 -9 -13 4 -25 2 -29 -6 -14 -21 0 -37 28 -33 15 3 53 6 85 8 57 2 75 -7 37
-19 -11 -4 -18 -11 -15 -16 7 -11 85 -9 85 3 0 13 28 9 33 -4 3 -10 7 -10 17
-1 10 9 3 16 -29 32 -40 21 -54 41 -28 41 6 0 29 5 49 10 35 10 37 12 26 35
-14 31 -6 40 21 25 17 -8 21 -8 21 3 0 8 -18 21 -40 30 -48 18 -50 30 -10 47
16 7 28 16 27 20 -1 5 7 16 18 24 11 9 16 16 10 15 -23 -3 -35 2 -35 15 0 8
-9 18 -20 21 -11 3 -20 11 -20 16 0 15 57 10 71 -7 11 -13 23 -15 64 -9 27 4
104 10 170 14 127 7 127 7 41 40 -16 6 -4 14 53 36 78 31 98 52 81 86 -10 18
-18 20 -58 15 -43 -6 -110 8 -128 27 -4 4 -14 7 -22 7 -8 0 -23 10 -33 22 -11
11 -19 18 -19 13 0 -4 -7 -2 -15 5 -11 9 -13 15 -5 20 7 5 -6 30 -38 71 -42
55 -54 64 -82 65 -19 1 -36 8 -42 18 -8 14 -12 15 -25 4 -8 -6 -19 -22 -23
-33 -5 -12 -23 -26 -45 -32 -31 -10 -36 -9 -31 3 3 8 2 14 -3 14 -4 0 -6 14
-3 30 2 17 8 30 12 30 5 0 12 9 15 20 3 11 12 20 18 20 20 0 73 92 82 144 4
19 13 40 21 47 8 6 14 16 14 21 0 5 19 37 43 71 43 62 68 105 155 267 25 47
56 103 69 125 12 22 27 50 32 62 5 11 14 24 20 28 7 4 6 14 -4 29 -14 21 -14
23 7 21 41 -4 78 51 48 70 -5 3 -10 29 -10 56 0 28 -5 60 -11 71 -18 34 -70
87 -92 94 -11 4 -30 15 -41 25 -11 11 -25 19 -30 19 -6 0 -22 17 -35 38 -36
54 -72 91 -105 107 -36 18 -55 20 -38 3z m227 -607 c-3 -20 -15 -53 -26 -74
-29 -58 -116 -169 -123 -158 -4 5 -2 12 4 16 5 3 10 19 10 36 0 16 5 29 11 29
5 0 8 4 5 9 -4 5 -1 33 5 63 7 37 19 60 37 75 15 13 23 23 17 23 -5 0 1 6 15
13 39 21 53 10 45 -32z"/>
<path d="M5571 1835 c0 -17 -7 -39 -15 -50 -7 -11 -17 -31 -21 -44 -12 -39
-81 -113 -129 -138 -34 -18 -95 -24 -117 -12 -9 4 -45 13 -80 19 -87 14 -108
18 -118 24 -8 6 -61 -62 -61 -79 0 -4 -16 -32 -35 -61 -19 -29 -35 -55 -35
-58 0 -4 -17 -32 -39 -64 -59 -87 -72 -117 -58 -131 8 -8 7 -11 -6 -11 -9 0
-17 -6 -17 -12 0 -17 187 -22 451 -13 l196 7 44 39 c24 21 47 39 50 39 4 0 9
9 12 21 5 17 12 20 39 17 24 -2 33 1 33 12 0 12 -15 15 -70 15 -74 0 -95 7
-95 30 0 21 15 26 46 16 65 -21 111 -20 135 2 19 18 35 21 108 21 l86 0 15
-32 c16 -34 47 -43 57 -17 3 9 -2 21 -10 28 -9 7 -47 76 -86 154 -75 151 -113
205 -56 78 50 -109 50 -109 -37 -100 -40 3 -76 12 -80 18 -4 7 -8 48 -9 92
l-1 80 -13 -65 c-7 -36 -13 -60 -14 -54 -1 7 -17 9 -41 7 l-40 -4 0 42 c0 23
5 70 11 105 6 34 9 72 6 85 -4 20 -5 19 -6 -6z"/>
<path d="M505 1643 c-34 -8 -55 -34 -55 -68 0 -25 10 -42 46 -76 73 -71 115
-177 83 -215 -29 -35 -159 20 -159 67 0 31 -14 22 -35 -23 -19 -38 -81 -95
-92 -84 -3 2 14 59 36 125 44 129 46 141 31 141 -5 0 -10 -7 -10 -15 0 -8 -6
-15 -12 -15 -28 0 -39 18 -36 54 3 44 -13 60 -76 77 -45 12 -100 5 -135 -18
l-24 -15 38 -22 c57 -32 78 -66 83 -136 9 -118 -43 -188 -119 -161 -40 14 -39
14 -39 -4 0 -8 -7 -15 -15 -15 -9 0 -15 -9 -15 -25 0 -41 40 -59 134 -58 50 0
73 -3 61 -8 -22 -8 -13 -12 23 -9 14 1 22 -4 22 -13 0 -9 3 -22 6 -31 3 -9 2
-16 -4 -16 -5 0 -12 9 -15 20 -4 15 -14 20 -36 20 -34 0 -38 -7 -18 -32 15
-21 53 -25 91 -9 23 9 27 15 21 34 -14 48 -12 51 44 59 35 5 58 5 65 -2 12
-12 46 -13 46 -1 0 5 9 7 20 4 11 -3 20 -1 20 4 0 5 15 8 33 6 69 -8 77 -12
77 -38 0 -23 4 -25 45 -25 39 0 45 3 45 21 0 11 4 18 9 15 5 -4 7 3 4 14 -3
11 -8 20 -12 20 -3 0 -17 9 -30 19 l-25 19 39 19 c67 31 123 175 95 243 -9 22
-16 28 -25 20 -18 -15 -38 -4 -59 30 -17 29 -17 30 4 38 20 8 20 9 3 24 -38
33 -126 54 -178 41z"/>
<path d="M4508 1462 c-19 -2 -28 -9 -28 -22 0 -10 -6 -20 -13 -23 -9 -3 -13
-22 -11 -61 1 -31 -2 -56 -7 -56 -5 0 -9 -16 -9 -35 0 -23 -6 -38 -16 -42 -12
-5 -9 -9 14 -19 56 -23 70 -11 133 118 47 95 22 151 -63 140z"/>
<path d="M2765 120 c-3 -10 -13 -21 -23 -25 -94 -36 -364 -54 -515 -35 -101
14 -227 19 -227 10 0 -3 53 -12 118 -19 64 -7 131 -15 147 -18 17 -2 133 -6
259 -7 151 -2 230 -7 235 -14 8 -13 121 -4 121 9 0 5 -10 9 -22 9 -32 0 -17 9
28 15 21 4 50 9 64 12 14 3 45 6 69 8 24 2 46 7 50 11 3 5 40 10 81 12 80 3
93 8 70 22 -46 29 -265 40 -347 18 -20 -5 -47 -5 -68 1 -29 8 -35 7 -40 -9z"/>
</g>
</svg>
