<svg xmlns="http://www.w3.org/2000/svg" width="40" height="36" viewBox="0 0 39 36" fill-rule="evenodd" xmlns:v="https://vecta.io/nano"><path d="M13.438.039c-.035.02-.227.09-.434.16l-.441.16c-.039.02-.223.09-.41.164l-.484.195-.609.277-.484.23c-.008.008-.187.105-.395.211l-.645.355-.375.223-.324.203-.273.18c-.172.102-.59.398-.598.422-.008.016-.035.027-.062.027s-.051.012-.059.027-.18.156-.387.316l-.449.348-1.473 1.348-1.227 1.352a.43.43 0 0 1-.102.125c-.066.063-.285.355-.98 1.305-.059.082-.109.164-.109.184s-.012.047-.031.051c-.09.035-1.187 1.984-1.187 2.113 0 .035.191.047 1.004.047h1.004v.121c0 .172.012.168-1.141.164-1.211 0-1.113-.043-1.102.465l.012.348.367.012c.402.012.477-.016.461-.168-.012-.102-.016-.102-.328-.109l-.203-.004v-.289h.355c.496 0 .469-.027.469.434 0 .469.055.434-.676.434-.633 0-.723-.016-.723-.113s-.07-.082-.109.031c-.02.055-.051.129-.07.164-.109.191-.094.195.789.203.777.008.777.008.793.148.02.152.262.129.273-.023l.012-.113.473-.016 1.246.008.77.016.012.121c.016.176.219.16.266-.02.035-.137-.125-.125 1.453-.121 1.055 0 1.047 0 1.047.129 0 .074.086.164.156.164.051 0 .133-.125.133-.203v-.086l1.203-.008c1.25-.012 1.305-.008 1.305.129 0 .086.063.168.129.168.074 0 .156-.109.156-.203 0-.047.02-.086.047-.09h1.227c1.25.004 1.234 0 1.238.176 0 .082 0 .086.141.094.07.004.094-.02.113-.117.012-.062.031-.125.043-.137s.563-.02 1.227-.02c1.266 0 1.297.004 1.25.156-.023.074.07.148.172.133.063-.008.086-.039.094-.121.02-.164-.016-.16 1.242-.164l1.305.031c-.027.168.008.227.121.219.102-.012.117-.027.129-.129l.012-.117.363-.004c2.254-.008 2.125-.016 2.145.148s.234.148.266-.016c.012-.07.035-.129.047-.133l1.68-.004.801.008v.121c0 .215.223.219.277.008l.031-.113h2.469l.012.117c.02.215.293.156.293-.062 0-.09.07-.098.879-.09l1.152.016c.434.004.441.004.441.082 0 .238.258.262.293.027l.012-.09h2.473l.012.102c.023.207.234.211.273.004l.023-.121.293-.004 2.176.02c.02.016.035.063.035.105 0 .109.082.176.168.141s.121-.082.121-.184c0-.09-.043-.086.781-.078.406 0 .477-.008.496-.055.027-.07-.055-.234-.113-.234-.027 0-.055-.086-.07-.215-.035-.332-.082-.367-.465-.355-.504.016-.562.246-.07.281.246.02.246.02.258.129.016.141-.035.16-.445.16-.395 0-.406-.016-.406-.453 0-.414-.004-.414.539-.414.195 0 .355-.008.355-.02s-.023-.066-.055-.125l-.055-.105-1.012-.004-1.773.004-.762.004v-.293h1.684l1.688-.047c0-.051-.344-.738-.523-1.047-.07-.113-.125-.223-.125-.242s-.016-.035-.035-.035-.035-.016-.035-.035c0-.074-.691-1.137-.984-1.516l-.34-.453-.27-.355c-.02-.02-.09-.105-.156-.184-.723-.867-1.836-1.965-2.711-2.668l-.949-.715-.43-.305c-.043-.035-.141-.094-.215-.137a.82.82 0 0 1-.145-.094c-.027-.031-.887-.547-1.059-.633l-.43-.23c-.359-.195-.988-.492-1.508-.707l-.496-.211c-.059-.031-.125-.051-.152-.051s-.117-.031-.203-.07l-.535-.199L25.414 0h-5.957l-6.02.039M4.445 10.574c0 .57.016.617.164.598l.105-.012.016-.539.02-.543H5l.02.543c.016.531.02.539.098.551.168.027.188-.035.188-.59v-.52h.125c.07 0 .129.004.129.008a7.92 7.92 0 0 1-.008 1.367c-.027.016-.332.031-.68.031-.73 0-.73 0-.691-.285.035-.273.004-.297-.414-.289s-.434.012-.434.145c0 .117.043.133.359.148.191.012.199.012.207.121.016.141-.035.16-.465.16-.371 0-.344.031-.355-.426s-.043-.437.566-.43c.551.004.527.016.535-.258.004-.258.023-.293.16-.293h.105v.512m5.012-.379l-.012.137-1.781.008-1.785.012-.02-.09c-.055-.211-.141-.199 1.813-.199h1.797l-.012.133m.578.402c.02.559.055.656.207.559.055-.031.066-.113.082-.559l.016-.52.117-.008.117-.012v.523c0 .523 0 .527.086.566.184.086.199.043.203-.5 0-.551.012-.598.164-.582l.102.012.012.668c.012.797.082.723-.691.723-.723 0-.691.012-.707-.309l-.012-.25-.383-.012c-.387-.008-.387-.008-.422.082-.062.16-.016.195.262.207.254.012.258.012.27.113.016.145-.035.168-.406.168-.43 0-.418.016-.402-.453l.008-.395.539-.008.535-.004.012-.23c.012-.305.023-.324.16-.309l.117.008.016.52m5.012-.426c.023.18.031.18-1.844.168l-1.75-.008-.012-.082c-.027-.199-.117-.191 1.813-.18l1.785.008.008.094m.547-.082c.016.977.039 1.105.184 1.082.082-.012.086-.016.102-.551l.02-.543.133-.008.133-.012.012.551.008.551h.25l.02-.539.02-.543.098-.012c.145-.016.164.078.156.746-.008.715.059.656-.738.648l-.629-.012-.008-.199c-.02-.379.008-.359-.441-.359-.387 0-.391 0-.414.09-.043.168-.004.199.266.199.258 0 .293.02.293.18 0 .078-.129.109-.48.109s-.348 0-.359-.41c-.02-.473-.031-.461.578-.449.555.012.547.016.547-.297 0-.113.012-.215.027-.227.031-.035.227-.031.227.004m5 .117v.125l-1.762.008c-1.918.012-1.879.016-1.828-.187l.023-.09 1.785.008 1.781.008v.129m.582.426l.012.551.266-.023.008-.504.008-.551c.004-.031.043-.043.121-.035l.113.008.012.504c.012.539.031.609.184.59l.094-.012.016-.539.02-.543h.25l.012.668c.012.797.078.723-.68.723-.746 0-.711.012-.711-.273 0-.293-.031-.309-.477-.297l-.332.012v.25l.254.02c.242.02.25.02.262.121.016.145-.035.168-.371.168-.469 0-.449.02-.449-.434 0-.465-.043-.437.637-.43l.457.008.012-.195c.016-.332.031-.363.16-.348l.117.008.008.555m4.98-.527c.035.055.035.137 0 .199-.031.047-3.402.07-3.52.023-.055-.023-.074-.195-.031-.242.051-.047 3.516-.027 3.551.02m.586 0c.004.027 0 .254 0 .508-.008.496.016.566.164.566.121 0 .129-.035.125-.535-.008-.535.004-.582.141-.582s.141.035.141.598v.48l.094.023c.176.047.195-.016.195-.582v-.52h.121c.164 0 .164.012.164.738 0 .742.082.668-.711.668-.715 0-.703.004-.703-.316v-.242l-.375-.012c-.387-.012-.437.004-.457.145-.016.105.043.137.277.137.215 0 .285.043.285.164 0 .109-.059.125-.449.125-.398 0-.383.02-.387-.437-.004-.445-.031-.426.594-.43h.492v-.18c0-.223 0-.219.043-.297s.242-.09.246-.02m5.035.027c.07.223.121.219-1.812.219h-1.758l-.039-.09c-.094-.207-.16-.199 1.797-.199l1.813.07m.547.469c.012.543.02.578.176.578.109 0 .125-.07.117-.586-.004-.492.012-.547.152-.527.082.012.082.02.094.516.008.527.031.598.172.598.121 0 .129-.035.125-.551-.004-.527.012-.578.164-.562l.102.012v1.371l-.574.012a7.3 7.3 0 0 1-.687-.012l-.113-.02-.012-.262-.012-.258h-.789v.25l.262.012c.242.012.262.016.281.102.043.168-.031.199-.449.188l-.379-.012v-.828l.547-.012.547-.008v-.227c0-.25.039-.32.18-.305l.09.008.008.523m-25.164.023c.07.02.078.047.09.277l.008.258.34.012c.41.012.504-.004.504-.098 0-.164-.031-.184-.309-.184h-.266v-.121c0-.148.047-.164.449-.164.391 0 .379-.016.367.449l-.008.395-.574.012c-.316.004-.629 0-.695-.012l-.121-.023.023-.219c.031-.305.012-.316-.406-.316s-.434.012-.434.316c0 .246-.031.289-.195.246-.102-.027-.145-.711-.047-.809.043-.043 1.117-.062 1.273-.02m5.578.012c.102.039.102.047.086.258-.02.281-.004.289.445.277.367-.012.371-.012.371-.102.004-.168-.016-.18-.273-.18-.238 0-.246-.004-.27-.094-.035-.148.059-.195.387-.195.457 0 .457 0 .457.449-.004.461.066.422-.77.41l-.609-.012-.016-.27-.02-.27-.371-.012c-.441-.012-.449-.008-.437.293.008.254-.043.313-.211.258-.07-.02-.117-.754-.055-.816.039-.039 1.188-.035 1.285.004m5.641.145l.031.281.02.117h.387c.422 0 .457-.016.41-.203-.02-.082-.035-.086-.285-.086h-.266v-.121c0-.152.035-.168.387-.168.465.004.441-.02.43.449l-.012.398-.57.012c-.316.004-.629 0-.695-.012l-.117-.02.012-.234c.012-.305.004-.309-.441-.297l-.371.012-.02.27c-.016.25-.023.27-.102.281-.156.023-.184-.047-.184-.43 0-.449-.039-.43.75-.418l.629.008.008.16m5.555-.133c.016.023.027.148.027.277v.234l.344.012c.422.012.5-.004.5-.113 0-.129-.07-.168-.312-.168h-.227v-.121c0-.168.246-.219.691-.145l.137.023-.008.402-.012.398-.609.012c-.812.012-.77.027-.77-.277 0-.297.008-.293-.445-.293-.418 0-.434.012-.406.266.023.227-.031.324-.168.305-.074-.012-.137-.656-.078-.812.027-.066 1.293-.066 1.336 0m5.547-.023c.043.016.055.078.055.266 0 .293-.008.289.449.289.336 0 .418-.027.402-.145s-.066-.145-.312-.145h-.25v-.121c0-.137.098-.168.531-.168.297.004.297 0 .285.453l-.012.395-.609.012c-.812.012-.777.023-.766-.262.016-.309.008-.312-.437-.301l-.371.012-.012.262c-.012.277-.102.375-.242.258-.066-.055-.035-.754.035-.801.047-.031 1.172-.035 1.254-.004m5.555.012c.082.031.09.055.102.281l.012.242h.785l.012-.113c.016-.133-.02-.148-.352-.164-.164-.008-.199-.02-.207-.082-.016-.133.039-.16.395-.184.461-.031.457-.035.457.438 0 .445.063.414-.734.414-.68 0-.656.012-.668-.309l-.012-.25-.375-.012c-.449-.012-.48.008-.445.297.023.215-.031.297-.184.258-.09-.023-.09-.027-.09-.418v-.391l.117-.016c.246-.031 1.102-.023 1.188.008m-28.367.668c0 .121-.008.129-.125.129-.125 0-.187-.145-.102-.23s.227-.02.227.102m5.586.012c.008.109.004.117-.113.117-.141 0-.191-.074-.129-.187.063-.121.227-.074.242.07m5.578-.07c.035.121-.016.188-.145.188-.121 0-.184-.145-.098-.23.051-.051.223-.023.242.043m5.57.07c.008.113.008.117-.137.117-.137 0-.145-.008-.145-.105a.14.14 0 0 1 .281-.012m5.59 0c.012.113.008.117-.133.117s-.148-.008-.148-.105a.14.14 0 0 1 .281-.012m5.555 0c.012.117.012.121-.125.109-.148-.012-.195-.098-.113-.195s.227-.047.238.086m-13.828 2.508c0 .008.023.035.055.059.043.039.055.035.055-.012 0-.031-.027-.059-.055-.059s-.055.008-.055.012m-3.242.961c-.012.016-.008.043.012.051.043.027.148-.012.148-.055s-.133-.039-.16.004m4.176-.023c0 .059.102.094.117.043.016-.039 0-.055-.047-.055-.039 0-.07.008-.07.012m.902 6.051c-.062.098-.027.129.082.07.066-.039.078-.062.047-.098-.051-.066-.074-.062-.129.027m-5.906-.004c-.027.051.012.109.074.109s.063-.008.031-.09c-.023-.062-.07-.074-.105-.02" fill="rgb(14.901961%,60.784314%,27.058824%)"/><path d="M18.484 13.875c-.043.078.031.309.141.438.234.277.582.324.867.117l.141-.105.141.086c.336.211.633.188.875-.062.27-.281.207-.621-.066-.359-.238.23-.504.242-.766.035-.16-.125-.148-.125-.297-.012-.273.207-.582.199-.816-.023-.148-.141-.191-.164-.219-.113m.906.859l-.238.199c-.066.051-.062 2.191.004 3.645l.078 2.34c-.031 0-.156-.105-.32-.262l-.156-.137c-.133 0-1.051-1.422-1.051-1.633 0-.023-.012-.062-.031-.082-.309-.344-.312-2.34-.004-3.027l.113-.27a2.39 2.39 0 0 1 .164-.332c.164-.27.035-.238-.215.051-1.191 1.371-1.301 3.43-.262 4.984l.164.258c0 .082.879.84 1.102.945.273.133.039.234-.824.355l-.457.09c0 .094 1.035.168 1.551.109l.242-.027.105.18c.23.398.301.426.473.176.063-.094.129-.176.145-.184s.027-.043.027-.082c0-.066.023-.07.555-.047.445.02.633.012.969-.039.402-.066.543-.129.285-.129-.348 0-1.375-.211-1.375-.285 0-.031.266-.219.316-.219.02 0 .039-.012.047-.027s.094-.09.191-.168c1.223-.984 1.773-2.531 1.457-4.094l-.113-.453c-.016-.02-.039-.074-.055-.125-.113-.375-.492-.992-.828-1.34-.199-.211-.227-.207-.109.027.688 1.367.711 2.875.066 4.18-.109.219-.254.473-.324.563l-.191.254c-.18.246-.797.813-.832.758-.012-.02.004-.52.035-1.113l.078-2.953.02-1.883-.141-.09c-.074-.047-.176-.133-.227-.184-.121-.133-.203-.117-.434.07m-2.258.191c-.648.328-1.07.703-1.441 1.281-.805 1.25-.648 2.992.367 4.145.367.418.797.625.559.27-.047-.07-.152-.27-.23-.445a5.35 5.35 0 0 1-.289-.828c-.41-1.406.227-3.469 1.352-4.395.066-.051.074-.078.039-.117-.055-.066-.043-.066-.355.09m4.625-.102c0 .023.125.168.277.324l.316.332c1.129 1.582 1.281 3.309.43 4.957-.285.555.02.438.566-.219 1.219-1.461.977-3.707-.531-4.887-.473-.367-1.059-.648-1.059-.508m-10.52 9.227c-.043.016-.082.074-.09.133l-.02.105-1.242.008-1.242.012-.012-.117c-.02-.215-.277-.18-.281.035v.082l-1.246-.012-1.242-.008-.02-.109c-.035-.199-.285-.16-.289.047v.082H3.09l-.023-.129c-.031-.18-.242-.176-.27 0l-.02.109-.836.008c-.898.012-.902.012-.832.203l.035.094 1.336.004c1.418 0 1.438 0 1.422.164l-.012.105-1.309.016c-1.418.02-1.363.012-1.234.207.039.059.086.082.176.082.145 0 .176.066.145.297-.031.238-.012.25.434.238l.391-.012v-.215l-.262-.012-.258-.012v-.285l.402.008.402.012v.793l-.512.008c-.418.008-.508.02-.508.063 0 .051.43.922.598 1.211l.27.469.422.684.27.398c.695 1.051 1.934 2.465 2.937 3.363l.957.805.281.219.781.57.328.223.395.254.539.316c.699.414 1.953 1.027 2.582 1.262l.418.168c.145.066.395.066 6.961.066h6.809l.172-.074.445-.176.473-.195.223-.094c.07 0 1.75-.875 2.055-1.07l.469-.289c1.973-1.195 4.375-3.535 5.656-5.512l.199-.285c.035-.039.066-.082.066-.098s.043-.098.102-.184c.336-.5 1.098-1.949 1.066-2.031-.016-.043-.094-.055-.363-.055-.301 0-.34-.008-.344-.062l-.02-.297c-.008-.129-.008-.285.004-.352l.023-.113.543-.012.547-.012.016-.27c.02-.262.023-.27.121-.289.125-.02.238-.23.145-.266-.031-.012-.352-.02-.715-.02h-.66v-.09c0-.215-.25-.242-.289-.035l-.016.105-1.246.008-1.242.012-.012-.117c-.016-.184-.254-.184-.273 0l-.012.117-1.242-.012-1.242-.008-.02-.109c-.027-.172-.262-.16-.277.012l-.012.117-1.246-.012-1.242-.008-.012-.117c-.016-.184-.238-.176-.273.008l-.023.129h-2.465l-.012-.117c-.016-.191-.277-.203-.277-.012v.129l-1.246-.012-1.246-.008-.012-.082c-.031-.211-.277-.223-.301-.016l-.012.098h-2.473l-.012-.117c-.016-.18-.195-.172-.262.008l-.047.129-1.238-.012-1.238-.008v-.102c-.004-.129-.086-.184-.211-.133-.07.027-.094.059-.094.145v.109l-1.246-.012-1.234-.055c.02-.098-.066-.191-.164-.18-.074.008-.102.035-.113.117l-.02.109-1.246.008-1.246.012v-.102c0-.055-.02-.121-.043-.145-.047-.051-.055-.051-.152-.012m-6.785 1.094l.008.551h.254l.016-.52c.02-.559.055-.652.207-.559.055.035.066.117.082.559l.016.52h.254l.008-.527.012-.527.094-.027c.051-.012.105-.008.125.012.027.023.051 1.117.031 1.332 0 .035-.164.043-.684.043h-.68l-.008-.117c0-.062-.008-.148-.012-.187l-.012-.156c-.008-.078-.012-.082-.41-.07l-.402.012-.012.113-.012.117.281.008.281.012.008.137.012.133h-.82l-.012-.152c-.008-.082-.008-.27 0-.414l.012-.262h.535l.535-.008c0-.004.008-.117.02-.246.023-.309.031-.324.156-.324h.105l.012.551m4.992-.406v.129H5.859l-.012-.086c-.027-.191-.066-.187 1.836-.176l1.762.008v.125m.535-.121c.047.02.055.102.055.539 0 .477.008.523.07.555.184.098.211.016.211-.59 0-.488.016-.535.168-.516.066.008.074.043.09.547l.02.543h.25l.008-.504c.012-.539.035-.605.188-.59l.09.012v1.371l-.687.008-.691.012v-.543h-.828l.023.266.188-.008c.273-.016.332.012.332.16V26h-.824v-.824l.543-.012.547-.012.012-.25c.012-.289.066-.352.238-.285m5.039.031c.023.027.035.09.031.133l-.012.086h-3.586l-.012-.105c-.008-.059.008-.117.035-.137.09-.055 3.492-.035 3.543.023m.574.504l.016.543.137.012.133.012v-1.078l.094-.023c.172-.047.195.012.195.559 0 .535.023.602.195.539.066-.023.074-.066.09-.562.016-.527.02-.539.102-.551.176-.023.172-.043.156 1.031l-.008.367h-1.359l-.008-.258-.012-.262h-.414c-.406 0-.41 0-.422.082-.02.125.02.145.277.156.238.012.332.086.277.227-.035.09-.812.082-.816-.008l-.008-.414-.008-.352h.523c.609 0 .609 0 .609-.309 0-.25.012-.277.141-.262l.09.012.02.539m5-.414v.129l-1.781.008-1.777.008-.023-.094c-.051-.199-.094-.195 1.82-.184l1.762.008v.125m.57-.086c.012.031.02.281.02.555 0 .48.004.5.078.52.188.047.211-.008.211-.574s.016-.609.184-.531c.078.031.094.188.102.922v.172h.25v-1.082l.09-.023c.195-.047.199-.039.199.707v.688l-.691-.012-.691-.008-.008-.262-.012-.262h-.82v.109c0 .129.02.137.305.152l.215.012.012.133.012.137-.406-.012-.406-.008v-.793l.539-.02.535-.02.012-.25c.008-.145.027-.262.055-.277.074-.047.195-.031.219.027m4.98-.035c.094.035.074.227-.023.25-.043.008-.855.016-1.801.008l-1.719-.008-.012-.105c-.008-.059.008-.117.035-.137.055-.031 3.434-.043 3.52-.008m.547.016c.039 0 .051.09.051.484 0 .574.004.598.164.598h.121v-.504c0-.516.027-.617.16-.617.102 0 .125.105.133.598l.012.504h.25l.02-.543.016-.539.098-.012c.156-.016.176.07.168.734l-.031.633c-.016.02-.273.031-.684.023l-.66-.008-.02-.254-.016-.25h-.824v.105c0 .109 0 .109.238.133.293.027.313.043.305.168l-.008.098-.402.008-.402.012v-.832h.512c.598 0 .598 0 .598-.309 0-.234.02-.281.102-.25.027.008.07.02.102.02m5.051.105v.129l-1.754.008c-1.805.008-1.848.008-1.848-.133 0-.148.016-.148 1.844-.137l1.758.008v.125m.512-.121c.078.023.078.031.078.563v.539l.137-.012.133-.012.004-.52c.008-.543.02-.59.176-.57.066.008.074.043.09.547l.016.543.137.012.133.012v-.5c0-.551.027-.641.184-.617l.086.012v1.371h-1.363l-.016-.254-.02-.25-.805-.023v.109c0 .137.043.16.305.164h.215l.012.137.008.133h-.828v-.824l1.094-.023.012-.23c.016-.301.047-.348.215-.305m5.055.02c.074.074.051.207-.039.23-.043.008-.855.016-1.801.008l-1.719-.008-.012-.086c-.027-.195-.113-.187 1.777-.187l1.793.043m-30.066.805v.273h.41c.25 0 .414-.016.418-.039l.004-.09-.004-.09c-.004-.02-.105-.035-.23-.035-.25 0-.312-.035-.312-.187v-.102h.824V26H6.988l-.004-.098-.023-.363c-.008-.078-.012-.082-.41-.07l-.402.012-.02.25-.016.254h-.254l-.008-.324c-.02-.535-.086-.488.707-.488h.684v.27m5.582 0c.016.309-.008.293.445.273l.371-.02v-.215l-.238-.012c-.27-.012-.336-.059-.297-.203.023-.094.023-.094.41-.094.449 0 .43-.02.43.414 0 .453.063.414-.723.414h-.676v-.539h-.395c-.449 0-.43-.012-.441.309l-.008.215-.133.012-.137.012v-.836l.691.008.691.012.008.25m5.57-.008l.012.262.398.012c.426.008.461-.004.418-.172-.016-.062-.047-.074-.191-.074-.262 0-.363-.051-.348-.172l.012-.098.402-.012.402-.008v.832l-.691-.012-.687-.008-.004-.219-.012-.262c-.004-.031-.113-.043-.414-.043h-.414V26h-.121c-.152 0-.164-.027-.164-.445s-.07-.383.719-.383h.676l.008.262m5.566-.02c.008.316-.004.309.512.305l.332-.004v-.254h-.25c-.238 0-.254-.008-.289-.09-.066-.18-.027-.199.418-.199h.41l-.008.406-.012.406h-1.363l-.016-.254-.02-.25h-.824l-.004.215c-.004.316 0 .305-.141.305h-.125v-.391c0-.484-.07-.441.711-.43l.66.012.008.223m5.582.02l.012.262.391.012c.418.008.473-.008.438-.152-.02-.086-.039-.09-.281-.102l-.262-.012-.008-.133-.012-.137h.828v.832l-.691-.012c-.781-.008-.695.031-.703-.344l-.004-.191-.805.023-.012.262-.012.258h-.121c-.145 0-.152-.016-.16-.402-.012-.461-.07-.426.715-.426h.68l.008.262m5.578-.004c.012.301.02.309.457.285l.355-.02.023-.234h-.215c-.289 0-.328-.02-.328-.168v-.121l.406.008.402.012v.793l-.691.008-.687.012v-.543h-.41c-.469 0-.453-.012-.453.328V26h-.25v-.828l.691.008.688.012.012.238m1.68.105c-.035.145.004.168.293.188.301.016.344-.004.383-.164l.027-.098h-.344c-.312 0-.34.004-.359.074m-30.125.219c.043.137-.016.246-.137.246-.133 0-.18-.145-.078-.242.055-.055.195-.059.215-.004m5.566.105c0 .109-.012.125-.105.137-.129.016-.16-.02-.137-.164.027-.184.242-.16.242.027m5.582-.051c.031.152-.004.199-.129.188-.094-.012-.113-.031-.125-.117-.02-.18.223-.246.254-.07m5.578.059l.008.141-.137-.012c-.148-.012-.203-.125-.113-.234s.227-.047.242.105m5.563-.098c.086.102.027.215-.117.227-.133.008-.137.008-.137-.113 0-.168.152-.234.254-.113m5.547-.023c.102.063.035.238-.09.25-.113.008-.117.004-.117-.113 0-.152.094-.211.207-.137" fill="rgb(84.313725%,3.137255%,3.137255%)"/><path d="M0 18.031v18.031h6.336l6.246-.047-.414-.168c-.68-.254-1.91-.852-2.633-1.281l-.539-.316-.395-.254-.328-.223a14.33 14.33 0 0 1-.781-.57l-.281-.219-.52-.426a19.74 19.74 0 0 1-2.344-2.375 20.27 20.27 0 0 1-1.031-1.367l-.27-.398c-.039-.039-.238-.363-.422-.684l-.27-.469c-.168-.289-.598-1.16-.598-1.211 0-.043.09-.055.508-.062l.512-.008v-.793l-.402-.012-.402-.008v.285l.258.012.262.012v.215l-.391.012c-.445.012-.465 0-.434-.238.031-.23 0-.297-.145-.297-.09 0-.137-.023-.176-.082-.129-.195-.184-.187 1.234-.207l1.309-.016.012-.105c.016-.164-.004-.164-1.422-.164l-1.336-.004-.035-.094c-.07-.191-.066-.191.832-.203l.836-.008.02-.109c.027-.176.238-.18.27 0l.023.129h2.465v-.082c.004-.207.254-.246.289-.047l.02.109 1.242.008 1.246.012v-.082c.004-.215.262-.25.281-.035l.012.117 1.242-.012 1.242-.008.012-.102c.027-.215.293-.199.293.016v.105l1.246-.012 1.246-.008.02-.109c.016-.09.035-.109.133-.117.117-.012.117-.012.133.172 0 .047.172.055 1.246.063l1.246.012v-.109c0-.086.023-.117.094-.145.125-.051.207.004.211.133v.102l1.246.008 1.242.012.012-.117c.016-.184.27-.203.285-.023l.012.121h2.473l.012-.098c.023-.207.277-.211.301-.004l.012.102 1.246.008 1.246.012v-.129c0-.191.262-.18.277.012l.012.117h2.465l.023-.129c.035-.184.258-.191.273-.008l.012.117 1.242.008 1.246.012.012-.117c.016-.172.25-.184.277-.012l.02.109 1.242.008 1.242.012.012-.117c.02-.184.258-.184.273 0l.012.117 1.242-.012 1.246-.008.016-.105c.039-.207.289-.18.289.035v.09h.66l.715.02c.094.035-.02.246-.145.266-.098.02-.102.027-.121.289l-.016.27-.547.012-.543.012-.023.113c-.012.066-.012.223-.004.352l.02.297c.004.059.047.063.363.063.309 0 .355.012.355.063 0 .109-.785 1.586-1.078 2.023-.059.086-.102.168-.102.184s-.031.059-.066.098-.125.168-.199.285c-1.281 1.977-3.684 4.316-5.656 5.512l-.469.289c-.32.203-1.98 1.07-2.051 1.07-.016 0-.117.043-.227.094l-.473.195-.434.172-.16.074 6.336.004H39V0h-6.758l-6.758.016c0 .008.16.066.352.129l.5.184c.086.039.176.07.203.07s.094.02.152.051.281.121.496.211l1.508.707.43.23c.172.086 1.031.602 1.059.633a.82.82 0 0 0 .145.094l.215.137.43.305.949.715c.875.703 1.988 1.801 2.711 2.668l.156.184.27.355.34.453c.293.379.984 1.441.984 1.516 0 .02.016.035.035.035s.035.016.035.035.055.129.125.242c.18.309.523.996.523 1.047 0 .035-.363.047-1.687.047H33.73v.293l.762-.004 1.773-.004 1.012.004.055.105c.031.059.055.113.055.125s-.16.02-.355.02c-.543 0-.539 0-.539.414 0 .438.012.453.406.453.41 0 .461-.02.445-.16-.012-.109-.012-.109-.258-.129-.492-.035-.434-.266.07-.281.383-.012.43.023.465.355.016.129.043.215.07.215.059 0 .141.164.113.234-.02.047-.09.055-.496.055-.824-.008-.781-.012-.781.078 0 .102-.035.152-.121.184s-.168-.031-.168-.141c0-.043-.016-.09-.035-.105-.031-.016-1.383-.031-2.176-.02l-.293.004-.023.121c-.039.207-.25.203-.273-.004l-.012-.102h-2.473l-.012.09c-.035.234-.293.211-.293-.027 0-.078-.008-.078-.441-.082l-1.152-.016c-.809-.008-.879 0-.879.09 0 .219-.273.277-.293.063l-.012-.117h-2.469l-.031.117c-.055.207-.277.199-.277-.012v-.121l-.801-.008a100.66 100.66 0 0 0-1.68.004c-.012.004-.035.063-.047.133-.031.164-.242.176-.266.016s.109-.156-2.145-.148l-.363.004-.012.117c-.012.102-.027.117-.129.129-.113.008-.148-.051-.121-.219.004-.035.09-.035-1.305-.031-1.258.004-1.223 0-1.242.164-.008.082-.031.113-.094.121-.102.016-.195-.059-.172-.133.047-.152.016-.156-1.25-.156l-1.227.02c-.012.012-.031.074-.043.137-.02.098-.043.121-.113.117-.141-.008-.141-.012-.141-.094-.004-.176.012-.172-1.238-.176H11.48c-.027.004-.047.043-.047.09 0 .094-.082.203-.156.203-.066 0-.129-.082-.129-.168 0-.137-.055-.141-1.305-.129l-1.203.008v.086c0 .078-.082.203-.133.203-.07 0-.156-.09-.156-.164 0-.129.008-.129-1.047-.129-1.578-.004-1.418-.016-1.453.121-.047.18-.25.195-.266.02l-.012-.121-.77-.016-1.246-.008-.473.016-.012.113c-.012.152-.254.176-.273.023-.016-.141-.016-.141-.793-.148-.883-.008-.898-.012-.789-.203.02-.035.051-.109.07-.164.039-.113.109-.133.109-.031s.09.113.723.113c.73 0 .676.035.676-.434 0-.461.027-.434-.469-.434h-.355v.289l.203.004c.313.008.316.008.328.109.016.152-.059.18-.461.168l-.367-.012-.012-.348c-.012-.508-.109-.465 1.102-.465 1.152.004 1.141.008 1.141-.164v-.121H2.902c-.812 0-1.004-.012-1.004-.047 0-.129 1.098-2.078 1.188-2.113.02-.004.031-.027.031-.051s.051-.102.109-.184l.98-1.305a.43.43 0 0 0 .102-.125c.039-.098.684-.805 1.227-1.352l1.473-1.348.449-.348.387-.316c.008-.016.035-.027.059-.027s.055-.012.063-.027c.008-.023.426-.32.598-.422l.273-.18.324-.203.375-.223.645-.355.395-.211c.012-.012.227-.113.484-.23l.609-.277.484-.195.41-.164.441-.16.434-.16C13.477.016 11.156 0 6.746 0H0v18.031m4.207-7.93c-.012.023-.027.137-.027.254-.008.273.016.262-.535.258-.609-.008-.582-.027-.566.43s-.016.426.355.426c.43 0 .48-.02.465-.16-.008-.109-.016-.109-.207-.121-.316-.016-.359-.031-.359-.148 0-.133.02-.137.434-.145s.449.016.414.289c-.039.285-.039.285.691.285l.68-.031a7.92 7.92 0 0 0 .008-1.367c0-.004-.059-.008-.129-.008h-.125v.52c0 .555-.02.617-.187.59-.078-.012-.082-.02-.098-.551L5 10.078h-.25l-.02.543-.016.539-.105.012c-.148.02-.164-.027-.164-.598v-.512H4.34c-.059 0-.117.02-.133.039m1.648.016c-.012.027-.012.094.004.145l.02.09 1.785-.012 1.781-.008.012-.137.012-.133H7.672l-1.816.055m3.914-.012c-.012.023-.023.148-.027.273l-.012.23-.535.004-.539.008-.008.395c-.016.469-.027.453.402.453.371 0 .422-.023.406-.168-.012-.102-.016-.102-.27-.113-.277-.012-.324-.047-.262-.207.035-.09.035-.09.422-.082l.383.012.012.25c.016.32-.016.309.707.309.773 0 .703.074.691-.723l-.012-.668-.102-.012c-.152-.016-.164.031-.164.582-.004.543-.02.586-.203.5-.086-.039-.086-.043-.086-.566v-.523l-.117.012-.117.008-.016.52c-.016.445-.027.527-.082.559-.152.098-.187 0-.207-.559l-.016-.52-.117-.008c-.074-.008-.125.004-.133.035m1.68.008c-.012.027-.016.09-.008.137l.012.082 1.75.008c1.875.012 1.867.012 1.844-.168l-.008-.094-1.785-.008c-1.523-.008-1.789 0-1.805.043m3.918-.027c-.016.012-.027.113-.027.227 0 .313.008.309-.547.297-.609-.012-.598-.023-.578.449.012.41.012.41.359.41s.48-.031.48-.109c0-.16-.035-.18-.293-.18-.27 0-.309-.031-.266-.199.023-.09.027-.09.414-.09.449 0 .422-.02.441.359l.008.199.629.012c.797.008.73.066.738-.648.008-.668-.012-.762-.156-.746l-.098.012-.02.543-.02.539h-.25l-.008-.551-.012-.551-.133.012-.133.008-.02.543c-.016.535-.02.539-.102.551-.145.023-.168-.105-.184-1.082 0-.035-.195-.039-.227-.004m1.637.066c-.051.203-.09.199 1.828.188l1.762-.008v-.254l-1.781-.008-1.785-.008-.023.09m3.914-.012a1.87 1.87 0 0 0-.027.277l-.012.195-.457-.008c-.68-.008-.637-.035-.637.43 0 .453-.02.434.449.434.336 0 .387-.023.371-.168-.012-.102-.02-.102-.262-.121l-.254-.02v-.25l.332-.012c.445-.012.477.004.477.297 0 .285-.035.273.711.273.758 0 .691.074.68-.723l-.012-.668h-.25l-.02.543-.016.539-.094.012c-.152.02-.172-.051-.184-.59l-.012-.504-.113-.008c-.078-.008-.117.004-.121.035l-.008.551-.008.504-.266.023-.012-.551-.008-.555-.117-.008c-.094-.012-.117 0-.133.07m1.688-.055c-.043.047-.023.219.031.242.117.047 3.488.023 3.52-.023.035-.062.035-.145 0-.199-.035-.047-3.5-.066-3.551-.02m3.891.039c-.043.078-.043.074-.043.297v.18h-.492c-.625.004-.598-.016-.594.43.004.457-.012.438.387.438.391 0 .449-.016.449-.125 0-.121-.07-.164-.285-.164-.234 0-.293-.031-.277-.137.02-.141.07-.156.457-.145l.375.012v.242c0 .32-.012.316.703.316.793 0 .711.074.711-.668 0-.727 0-.738-.164-.738h-.121v.52c0 .566-.02.629-.195.582l-.094-.023v-.48c0-.562-.008-.598-.141-.598s-.148.047-.141.582c.004.5-.004.535-.125.535-.148 0-.172-.07-.164-.566v-.508c-.004-.07-.207-.055-.246.02m1.656-.008c-.012.031-.004.098.016.145l.039.09h1.758c1.934 0 1.883.004 1.813-.219-.031-.098-3.59-.113-3.625-.016m3.938-.016c-.027.027-.043.141-.043.273v.227l-.547.008-.547.012v.828l.379.012c.418.012.492-.02.449-.187-.02-.086-.039-.09-.281-.102l-.262-.012v-.25h.789l.012.258.012.262.113.02a7.3 7.3 0 0 0 .688.012l.574-.012v-1.371l-.102-.012c-.152-.016-.168.035-.164.563.004.516-.004.551-.125.551-.141 0-.164-.07-.172-.598-.012-.496-.012-.504-.094-.516-.141-.02-.156.035-.152.527.008.516-.008.586-.117.586-.156 0-.164-.035-.176-.578l-.008-.523-.09-.008c-.051-.008-.113.008-.137.031m-26.203.543c-.098.098-.055.781.047.809.164.043.195 0 .195-.246 0-.305.016-.316.434-.316s.438.012.406.316l-.023.219.121.023c.066.012.379.016.695.012l.574-.012.008-.395c.012-.465.023-.449-.367-.449-.402 0-.449.016-.449.164v.121h.266c.277 0 .309.02.309.184 0 .094-.094.109-.504.098l-.34-.012-.008-.258c-.012-.23-.02-.258-.09-.277-.156-.043-1.23-.023-1.273.02m5.566-.012c-.062.063-.016.797.055.816.168.055.219-.004.211-.258-.012-.301-.004-.305.438-.293l.371.012.02.27.016.27.609.012c.836.012.766.051.77-.41 0-.449 0-.449-.457-.449-.328 0-.422.047-.387.195.023.09.031.094.27.094.258 0 .277.012.273.18 0 .09-.004.09-.371.102-.449.012-.465.004-.445-.277.016-.211.016-.219-.086-.258s-1.246-.043-1.285-.004m5.602.008c-.086.051-.094.719-.012.789.141.117.215.035.234-.25l.02-.27.371-.012c.445-.012.453-.008.441.297l-.012.234.117.02c.066.012.379.016.695.012l.57-.012.012-.398c.012-.469.035-.445-.43-.449-.352 0-.387.016-.387.168v.121h.266c.25 0 .266.004.285.086.047.188.012.203-.41.203h-.387l-.02-.117a3.85 3.85 0 0 1-.031-.281l-.008-.16-.629-.008c-.379-.008-.652.004-.687.027m5.543.008c-.059.156.004.801.078.813.137.02.191-.078.168-.305-.027-.254-.012-.266.406-.266.453 0 .445-.004.445.293 0 .305-.043.289.77.277l.609-.012.012-.398.008-.402-.137-.023c-.445-.074-.691-.023-.691.145v.121h.227c.242 0 .313.039.313.168 0 .109-.078.125-.5.113l-.344-.012v-.234c0-.129-.012-.254-.027-.277-.043-.066-1.309-.066-1.336 0m5.629-.02c-.07.047-.102.746-.035.801.141.117.23.02.242-.258l.012-.262.371-.012c.445-.012.453-.008.438.301-.012.285-.047.273.766.262l.609-.012.012-.395c.012-.453.012-.449-.285-.453-.434 0-.531.031-.531.168v.121h.25c.246 0 .293.023.313.145s-.066.145-.402.145c-.457 0-.449.004-.449-.289 0-.187-.012-.25-.055-.266-.082-.031-1.207-.027-1.254.004m5.621 0l-.117.016v.391c0 .391 0 .395.09.418.152.039.207-.043.184-.258-.035-.289-.004-.309.445-.297l.375.012.012.25c.012.32-.012.309.668.309.797 0 .734.031.734-.414 0-.473.004-.469-.457-.437-.355.023-.41.051-.395.184.008.063.043.074.207.082.332.016.367.031.352.164l-.012.113h-.785l-.012-.242c-.012-.227-.02-.25-.102-.281s-.941-.039-1.187-.008m-27.406.574c-.086.086-.023.23.102.23.117 0 .125-.008.125-.129s-.145-.187-.227-.102m5.57.043c-.062.113-.012.188.129.188.117 0 .121-.008.113-.117-.016-.145-.18-.191-.242-.07m5.578-.043c-.086.086-.023.23.098.23.129 0 .18-.066.145-.187-.02-.066-.191-.094-.242-.043m5.555 0c-.094.094-.023.23.121.23s.145-.004.137-.117-.18-.191-.258-.113m5.594 0c-.094.094-.023.23.121.23s.145-.004.133-.117-.176-.191-.254-.113m5.57.027c-.082.098-.035.184.113.195.137.012.137.008.125-.109-.012-.133-.156-.187-.238-.086m-15.621 2.738c.242.242.551.258.832.043.148-.113.137-.113.297.012.27.215.535.195.781-.051.211-.211.242-.207.215.023-.066.484-.543.695-.996.441l-.191-.113-.098.086c-.363.313-.98.082-1.043-.391-.031-.254-.008-.258.203-.051m1.137.691a1.23 1.23 0 0 0 .227.188l.141.09-.02 1.883-.078 2.953-.035 1.113c.035.055.652-.512.832-.758.031-.047.121-.16.191-.254s.215-.344.324-.562c.645-1.305.621-2.812-.066-4.18-.117-.234-.09-.238.109-.027.336.348.715.965.828 1.34.016.051.039.105.055.125s.066.223.113.453c.316 1.563-.234 3.109-1.457 4.094l-.191.168c-.008.016-.027.027-.047.027-.051 0-.316.188-.316.219 0 .078 1.031.285 1.398.285.258 0 .113.063-.309.129-.312.051-.504.059-.957.039-.547-.02-.566-.02-.566.051 0 .039-.012.07-.023.07s-.074.074-.129.16c-.191.309-.238.293-.492-.145l-.105-.18-.242.027c-.449.051-.937.027-1.355-.059-.375-.078-.383-.082-.195-.086a7.86 7.86 0 0 0 1.039-.152c.383-.094.445-.16.242-.258-.223-.105-1.102-.863-1.102-.945 0-.004-.074-.121-.164-.258-1.059-1.586-.922-3.687.324-5.055.277-.305.34-.293.145.027-.043.07-.113.215-.156.324l-.113.27c-.316.703-.316 2.27-.004 3.031.176.418.293.656.449.898.188.289.594.809.637.813.012 0 .082.063.16.137.164.156.289.262.32.262.023 0 .008-.488-.078-2.34l-.004-3.645c.023-.023.137-.113.25-.207s.207-.18.207-.199c0-.047.109.02.215.133m-2.191.117c0 .016-.059.074-.133.133-1.164.934-1.816 2.996-1.406 4.438.16.559.363 1.039.574 1.352.195.293.129.293-.23 0-1.113-.906-1.539-2.41-1.074-3.801.277-.828.922-1.559 1.734-1.957.371-.184.539-.234.535-.164m4.445.105c.328.145.406.188.738.449 1.699 1.332 1.75 3.945.098 5.336-.344.289-.504.336-.324.098 1.055-1.391.953-3.59-.238-5.285-.023-.027-.191-.203-.375-.391-.383-.383-.371-.41.102-.207M4.211 24.641c-.008.023-.023.148-.031.277l-.02.246c0 .004-.242.008-.535.008H3.09l-.012.262c-.008.145-.008.332 0 .414L3.09 26h.82l-.012-.133-.008-.137-.277-.008-.281-.012v-.25h.414c.402 0 .414 0 .418.082l.012.152.012.188.008.117h.68c.52 0 .684-.008.684-.043.02-.215-.004-1.309-.031-1.332-.02-.02-.074-.023-.125-.012l-.094.027-.012.527-.008.527-.137.012-.133.012-.008-.531c-.012-.461-.02-.535-.074-.57-.152-.098-.187 0-.207.559l-.016.52h-.254l-.008-.551-.012-.551h-.105c-.059 0-.113.023-.125.047m1.668.008c-.023.027-.035.09-.031.133l.012.086h3.586v-.254l-1.762-.008c-1.504-.008-1.766-.004-1.805.043m3.914-.027c-.027.012-.043.105-.043.285v.266H8.641V26h.824v-.121c0-.148-.059-.176-.332-.16l-.187.008-.023-.266h.828v.543l.691-.012.688-.008v-1.371l-.09-.012c-.152-.016-.176.051-.187.59l-.008.504h-.25l-.02-.543c-.016-.504-.023-.539-.09-.547-.152-.02-.168.027-.168.516 0 .605-.027.688-.211.59-.062-.031-.07-.078-.07-.555 0-.57-.023-.625-.242-.535m1.684.004c-.027.02-.043.078-.035.137l.012.105h3.586l.012-.086c.023-.191.063-.187-1.801-.184l-1.773.027m3.891-.008c-.016.016-.023.121-.023.234 0 .336.031.32-.59.32h-.543l.008.352.008.414c.004.09.781.098.816.008.055-.141-.039-.215-.277-.227-.258-.012-.297-.031-.277-.156.012-.082.016-.082.422-.082h.414l.012.262.008.258h1.359l.008-.367c.016-1.074.02-1.055-.156-1.031-.082.012-.086.023-.102.551-.016.496-.023.539-.09.563-.172.063-.195-.004-.195-.539 0-.547-.023-.605-.195-.559l-.094.023v1.078l-.133-.012-.137-.012-.016-.543-.02-.539-.09-.012c-.051-.004-.102 0-.117.016m1.664.027c-.027.031-.035.094-.02.145l.023.094 1.777-.008 1.781-.008v-.254l-1.762-.008c-1.48-.008-1.766-.004-1.801.039m3.914-.02c-.027.016-.047.133-.055.277l-.012.25-.535.02-.539.02v.793l.406.008.406.012-.012-.137c-.008-.105-.027-.137-.082-.141a10.3 10.3 0 0 1-.262-.008l-.187-.004v-.254h.82l.012.262.008.262.691.008.691.012v-.687c0-.746-.004-.754-.199-.707l-.09.023v1.082h-.25v-.172c-.008-.734-.023-.891-.102-.922-.168-.078-.184-.031-.184.531s-.023.621-.211.574c-.074-.02-.078-.039-.078-.52 0-.613-.039-.711-.238-.582m1.68 0c-.027.02-.043.078-.035.137l.012.105 1.719.008 1.801-.008c.098-.023.117-.215.023-.25-.086-.035-3.465-.023-3.52.008m3.891-.008c-.016.016-.027.125-.027.246 0 .309 0 .309-.598.309h-.512v.832l.402-.012.402-.008.008-.098c.008-.125-.012-.141-.305-.168-.238-.023-.238-.023-.238-.133v-.105h.824l.016.25.02.254.66.008c.41.008.668-.004.684-.023s.023-.305.031-.633c.008-.664-.012-.75-.168-.734l-.098.012-.016.539-.02.543h-.25l-.012-.504c-.008-.492-.031-.598-.133-.598-.133 0-.16.102-.16.617v.504h-.121c-.16 0-.164-.023-.164-.598 0-.395-.012-.484-.051-.484-.031 0-.074-.012-.102-.02s-.062-.008-.074.004m1.668.02c-.059.059-.055.156.004.207.035.031.539.039 1.801.031l1.754-.008v-.254l-1.758-.008c-1.34-.008-1.77 0-1.801.031m3.906.004c-.023.027-.047.152-.051.281l-.012.23-1.094.023V26h.828l-.008-.133-.012-.137h-.215c-.262-.004-.305-.027-.305-.164v-.105h.82l.012.262.008.262h1.363v-1.371l-.086-.012c-.156-.023-.184.066-.184.617v.5l-.133-.012-.137-.012-.016-.543c-.016-.504-.023-.539-.09-.547-.156-.02-.168.027-.176.57l-.004.52-.133.012-.137.012v-.539c0-.531 0-.539-.078-.562-.113-.027-.121-.027-.164.023m1.656.008c-.012.027-.016.086-.008.133l.012.086 1.719.008 1.801-.008c.09-.023.113-.156.039-.23-.07-.066-3.539-.059-3.562.012m-27.887.605c-.012.043-.016.227-.008.406l.008.324h.254l.008-.262.012-.262h.41c.402 0 .41 0 .418.082l.023.359.004.098h1.363v-.828h-.824v.102c0 .152.063.188.313.188.125 0 .227.016.23.035l.004.09-.004.09c-.004.023-.168.039-.418.039h-.41v-.543h-.684c-.676 0-.68 0-.699.082m5.574.336v.418l.137-.012c.145-.012.141.004.148-.41l.004-.145.41.012.414.012V26h.676c.785 0 .723.039.723-.414 0-.434.02-.414-.43-.414-.387 0-.387 0-.41.094-.039.145.027.191.297.203l.238.012v.215l-.371.02c-.453.02-.43.035-.445-.273l-.008-.25-.691-.012-.691-.008v.418m5.582-.395c-.031.031-.031.672-.004.75.016.035.066.055.145.055h.121v-.539h.414c.301 0 .41.012.414.043s.008.145.012.262l.004.219.688.008.691.012v-.832l-.402.008-.402.012-.012.098c-.016.121.086.172.348.172.145 0 .176.012.191.074.043.168.008.18-.418.172l-.398-.012-.012-.262-.008-.262h-.676l-.695.023m5.594 0c-.016.016-.027.199-.027.414V26h.125c.141 0 .137.012.141-.305l.004-.215h.824l.02.25.016.254h1.363l.012-.406.008-.406h-.41c-.445 0-.484.02-.418.199.035.082.051.09.289.09h.25v.254l-.332.004c-.516.004-.504.012-.512-.305l-.008-.223-.66-.012c-.363-.004-.672.004-.684.016m5.547.051c-.023.074-.02.59.008.691.012.047.051.063.137.063h.121l.012-.258.012-.262.805-.023.004.191c.008.375-.078.336.703.344l.691.012v-.832h-.828l.012.137.008.133.262.012c.242.012.262.016.281.102.035.145-.02.16-.437.152l-.391-.012-.012-.262-.008-.262h-.68c-.645 0-.676.004-.699.074m5.574.34V26h.25v-.211c0-.34-.016-.328.453-.328h.41v.543l.688-.012.691-.008v-.793l-.402-.012-.406-.008v.121c0 .148.039.168.328.168h.215l-.023.234-.355.02c-.437.023-.445.016-.457-.285l-.012-.238-.687-.012-.691-.008v.414m3.746-.027c-.039.168-.07.18-.367.164-.316-.02-.352-.039-.316-.168.023-.094.027-.094.367-.094h.344l-.027.098m-31.016.199c-.023.023-.043.086-.043.145 0 .152.234.152.258-.004.023-.18-.098-.262-.215-.141m5.539.074c-.023.145.008.18.137.164.164-.02.156-.258-.008-.273-.102-.008-.113.004-.129.109m5.605-.086c-.098.063-.035.238.09.25s.16-.035.129-.187c-.02-.098-.117-.129-.219-.062m5.555.016c-.09.109-.035.223.113.234l.137.012-.008-.141c-.016-.152-.152-.211-.242-.105m5.57-.02a.41.41 0 0 0-.02.141c0 .16.262.176.281.02.02-.137-.168-.254-.262-.16m5.617-.004c-.023.008-.043.074-.043.145 0 .172.223.172.246-.004.012-.133-.07-.195-.203-.141" fill="rgb(98.431373%,98.039216%,98.039216%)"/></svg>