<?xml version="1.0" standalone="no"?>
<!DOCTYPE svg PUBLIC "-//W3C//DTD SVG 20010904//EN"
 "http://www.w3.org/TR/2001/REC-SVG-20010904/DTD/svg10.dtd">
<svg version="1.0" xmlns="http://www.w3.org/2000/svg"
 width="3536.000000pt" height="3219.000000pt" viewBox="0 0 3536.000000 3219.000000"
 preserveAspectRatio="xMidYMid meet">
<metadata>
Created by potrace 1.16, written by Peter Selinger 2001-2019
</metadata>
<g transform="translate(0.000000,3219.000000) scale(0.100000,-0.100000)"
fill="#000000" stroke="none">
<path d="M28285 32176 c-27 -7 -108 -41 -180 -76 -112 -54 -139 -72 -191 -127
l-61 -64 -58 16 c-109 32 -211 0 -362 -113 -178 -136 -364 -374 -497 -642
-109 -218 -140 -329 -140 -495 0 -129 16 -191 68 -268 22 -32 23 -39 15 -118
-40 -421 51 -1029 265 -1765 82 -282 122 -399 172 -500 73 -149 197 -280 334
-353 l58 -31 -9 -35 c-5 -19 -13 -51 -18 -70 -6 -24 -5 -35 3 -39 6 -2 -8 -5
-30 -5 l-41 -1 18 -67 c11 -37 19 -87 19 -110 l0 -43 -47 0 c-182 0 -648 -113
-1040 -252 l-113 -40 0 -127 c0 -1077 -957 -3182 -2350 -5171 -68 -96 -206
-288 -307 -427 l-183 -252 0 -53 c0 -197 285 -404 748 -542 186 -56 339 -82
562 -95 190 -12 293 -35 478 -107 279 -109 325 -125 381 -130 88 -10 169 19
351 125 178 104 206 114 232 81 23 -28 23 -54 -2 -215 -11 -71 -31 -206 -45
-300 -73 -483 -89 -764 -82 -1400 10 -756 43 -1438 113 -2275 38 -461 86 -823
175 -1329 42 -236 152 -798 170 -865 l11 -39 104 234 c244 548 468 938 748
1299 109 142 378 409 491 489 113 79 285 164 390 191 112 29 279 37 375 16
222 -47 389 -218 420 -431 15 -110 12 -409 -6 -506 -68 -369 -292 -996 -704
-1969 -102 -242 -317 -733 -376 -859 -24 -51 -44 -95 -44 -97 0 -10 -262 -560
-410 -859 -159 -323 -168 -344 -175 -415 -3 -41 -22 -154 -40 -250 -48 -253
-58 -358 -52 -555 7 -239 32 -355 157 -740 57 -177 70 -258 70 -449 0 -265
-27 -492 -141 -1166 -76 -454 -99 -617 -224 -1610 -128 -1026 -195 -1698 -195
-1983 0 -56 -7 -147 -15 -202 -68 -482 -371 -1325 -475 -1325 -21 0 -30 15
-50 88 -29 110 -121 71 -353 -147 -69 -66 -147 -134 -172 -151 -66 -45 -179
-96 -270 -122 -78 -23 -89 -23 -502 -20 -442 3 -504 -1 -596 -40 -57 -25 -110
-83 -132 -147 -26 -72 -31 -206 -10 -277 91 -313 518 -781 948 -1036 121 -72
222 -117 342 -154 80 -24 108 -28 242 -29 151 -2 153 -2 194 -31 23 -16 93
-87 155 -159 61 -72 138 -153 170 -181 167 -144 338 -223 555 -255 96 -14 113
-6 159 74 73 128 135 374 245 982 65 357 69 369 161 410 42 19 53 29 59 54 9
40 -8 118 -56 256 -44 126 -45 150 -24 285 52 317 222 809 719 2085 175 446
187 478 253 650 517 1350 587 1639 673 2810 11 149 25 306 30 350 32 246 86
372 178 411 18 8 78 19 134 24 116 11 213 36 348 90 401 161 820 418 1858
1140 653 455 841 571 928 574 l37 1 11 -55 c34 -166 197 -270 454 -289 99 -8
119 -12 160 -38 110 -68 215 -255 352 -628 126 -343 169 -451 231 -580 97
-204 205 -329 334 -386 65 -29 178 -31 253 -5 75 26 190 105 258 179 157 170
331 509 409 800 55 201 69 316 69 542 0 228 -10 305 -63 496 -56 198 -222 557
-343 741 -110 168 -113 184 -73 413 70 392 84 551 65 710 -21 177 -71 299
-165 403 -173 193 -555 306 -786 233 -112 -35 -197 -104 -345 -281 -109 -130
-187 -199 -329 -292 -191 -124 -218 -163 -198 -289 l10 -59 -96 -93 c-153
-148 -225 -195 -366 -241 -179 -57 -344 -74 -848 -86 -600 -14 -873 -53 -1223
-175 -242 -83 -450 -110 -508 -64 -19 15 -26 30 -26 54 0 82 82 281 340 820
53 112 307 649 425 900 653 1393 976 2371 1086 3299 26 219 36 700 20 981 -33
578 -110 939 -273 1288 -51 107 -59 134 -55 165 12 74 109 131 285 167 153 31
322 127 466 265 97 93 165 187 206 288 54 132 123 260 182 340 126 168 351
367 587 519 47 31 194 117 326 191 566 319 904 550 1169 801 62 58 142 131
177 161 471 401 413 1000 -164 1690 -101 121 -143 169 -308 350 -97 107 -259
300 -294 350 l-27 39 16 64 c22 87 20 228 -4 350 -30 149 -171 561 -240 702
-90 186 -208 319 -340 386 -58 29 -176 37 -240 16 -130 -43 -155 -57 -205
-110 l-50 -55 -45 66 c-338 496 -806 1013 -1206 1334 -408 327 -840 480 -1644
583 -359 46 -512 113 -551 244 -11 39 -14 40 -64 46 -50 7 -53 9 -93 68 -100
148 -151 305 -159 484 -8 175 16 283 104 473 49 106 152 290 162 290 3 0 17
-22 30 -50 104 -211 356 -390 548 -390 67 0 97 19 119 75 16 43 16 44 -20 152
-20 59 -43 140 -51 178 -15 71 -20 167 -9 178 3 3 33 -11 67 -31 34 -20 150
-77 257 -128 107 -50 224 -108 260 -129 154 -87 275 -195 351 -311 44 -69 73
-85 115 -65 36 16 61 65 75 144 30 180 -35 365 -177 504 -33 31 -50 55 -42 57
7 1 43 10 80 19 149 36 228 98 228 179 0 61 -22 92 -77 112 -203 73 -307 116
-376 158 -156 94 -206 153 -207 245 0 38 3 43 26 49 79 20 335 -90 497 -214
304 -232 520 -621 567 -1022 19 -157 19 -157 51 -184 17 -14 40 -26 51 -26 51
0 118 125 163 304 46 181 55 372 35 710 -6 93 -8 171 -6 174 8 7 87 -43 144
-92 30 -25 64 -46 76 -46 48 0 96 65 96 132 0 41 -48 199 -95 309 -42 100
-116 219 -173 282 -43 46 -44 47 -19 47 14 0 101 -11 194 -24 260 -38 322 -41
359 -18 62 40 82 129 40 180 -59 69 -258 180 -416 230 -169 54 -291 72 -652
98 -49 3 -91 10 -94 15 -3 6 -9 48 -14 95 -6 68 -12 90 -30 109 -31 33 -63 32
-146 -6 -205 -94 -345 -124 -579 -124 -251 0 -304 14 -665 180 -153 71 -237
100 -333 116 l-74 12 -98 191 c-156 304 -231 409 -349 489 -60 40 -172 86
-212 87 -27 0 -40 16 -49 60 -21 100 -118 221 -236 292 -155 94 -438 143 -594
104z m3636 -7893 c136 -114 451 -384 469 -403 3 -3 50 -45 105 -95 160 -143
235 -215 498 -475 413 -407 665 -702 812 -950 164 -279 165 -469 0 -553 -16
-8 -135 -120 -265 -249 -557 -553 -943 -878 -1238 -1041 -148 -82 -190 -94
-439 -127 -394 -52 -606 -96 -703 -145 -33 -17 -51 -21 -56 -14 -18 30 37 790
106 1449 124 1175 272 2099 401 2492 47 145 103 248 133 248 7 0 87 -62 177
-137z m-5900 90 c36 -30 70 -101 93 -190 56 -220 120 -813 181 -1663 29 -409
65 -1008 65 -1078 l0 -47 -76 3 c-102 6 -279 -14 -361 -39 -88 -27 -147 -58
-206 -108 -80 -67 -167 -72 -326 -20 -105 35 -321 148 -454 240 -13 9 432
1577 588 2075 174 550 331 854 442 854 12 0 36 -12 54 -27z"/>
<path d="M14690 24210 l0 -3960 403 0 402 1 35 52 c19 28 89 106 155 173 226
226 485 364 763 404 l82 12 0 1475 c0 853 4 1473 9 1471 5 -1 889 -865 1966
-1918 1076 -1053 1961 -1916 1966 -1918 5 -2 9 1647 9 3957 l0 3961 -925 0
-925 0 -2 -1794 -3 -1793 -1960 1918 c-1078 1055 -1963 1918 -1967 1919 -5 0
-8 -1782 -8 -3960z"/>
<path d="M1930 24085 l0 -3835 920 0 920 0 0 1068 c0 588 2 1071 4 1073 2 2
91 3 196 1 l192 -3 58 -122 c32 -67 153 -315 269 -551 116 -236 211 -430 211
-431 0 -3 472 -965 493 -1005 12 -23 19 -25 86 -28 69 -3 80 0 175 42 314 140
636 236 946 280 136 20 490 15 599 -8 41 -9 76 -15 77 -13 1 1 -70 135 -158
297 -88 162 -184 342 -215 400 -31 58 -132 247 -226 420 -93 173 -189 351
-212 395 -24 44 -129 240 -234 435 -105 195 -191 357 -191 360 0 4 48 43 108
87 593 445 968 1122 1057 1911 18 157 17 545 -1 697 -63 529 -254 998 -561
1381 -453 563 -1180 903 -2078 973 -60 5 -633 9 -1272 10 l-1163 1 0 -3835z
m2320 2149 c490 -72 810 -359 905 -809 23 -108 31 -321 16 -426 -71 -499 -429
-845 -951 -919 -41 -6 -157 -11 -259 -11 l-186 0 -3 1091 -2 1091 192 -2 c106
0 236 -7 288 -15z"/>
<path d="M7841 25398 c1 -2289 4 -2612 23 -2766 4 -26 11 -83 17 -127 55 -438
215 -906 427 -1248 167 -271 426 -544 679 -715 339 -230 822 -400 1243 -437
41 -4 86 -9 100 -11 49 -9 457 -12 570 -3 223 16 425 51 571 100 48 16 99 29
113 29 30 0 299 100 291 108 -3 3 -33 17 -68 32 -173 73 -317 237 -362 415
-74 292 107 666 390 806 197 97 389 92 614 -17 100 -49 124 -66 195 -137 108
-109 165 -227 166 -342 l1 -40 25 30 c52 62 180 264 240 380 184 351 310 793
350 1225 3 36 8 81 12 100 3 19 8 1184 9 2588 l3 2552 -920 0 -920 0 0 -2492
c0 -1543 -4 -2539 -10 -2613 -19 -225 -58 -382 -137 -539 -55 -111 -88 -160
-166 -242 -276 -296 -731 -366 -1109 -172 -283 146 -457 457 -497 888 -7 78
-11 935 -11 2643 l0 2527 -920 0 -920 0 1 -2522z"/>
<path d="M25325 27851 c-307 -30 -614 -209 -971 -565 -269 -270 -494 -551
-758 -949 -687 -1037 -1342 -2431 -1971 -4202 -577 -1624 -951 -2821 -1121
-3595 l-27 -124 -130 -186 c-474 -673 -934 -1288 -1378 -1840 -359 -447 -609
-731 -883 -1006 -243 -242 -380 -349 -508 -398 -51 -20 -78 -16 -109 17 -27
29 -37 54 -49 131 -9 55 -7 73 10 127 25 81 116 246 288 519 402 641 486 777
557 905 202 361 265 558 236 732 -39 236 -173 414 -445 594 -162 107 -400 223
-921 449 -147 64 -543 259 -551 271 -3 5 11 28 31 52 215 250 370 476 486 707
72 145 113 260 139 395 55 288 -2 531 -164 690 -99 98 -194 146 -347 174 -144
26 -204 26 -328 1 -247 -50 -464 -174 -658 -373 -180 -185 -288 -380 -334
-602 -20 -94 -15 -283 10 -402 57 -272 150 -443 336 -622 72 -69 85 -86 73
-96 -40 -39 -313 -274 -438 -379 -306 -256 -641 -503 -945 -696 -862 -547
-1546 -790 -2219 -790 -263 0 -395 23 -535 91 -151 74 -255 212 -298 396 -25
107 -25 433 0 578 69 399 250 902 543 1505 57 118 109 239 115 269 15 73 7
185 -18 242 -60 134 -220 229 -387 229 -179 0 -314 -82 -449 -273 -153 -215
-371 -686 -498 -1075 l-44 -134 -250 -177 c-950 -675 -1908 -1320 -3348 -2255
-142 -92 -260 -166 -262 -164 -1 1 4 66 13 143 9 88 15 239 16 410 1 245 -1
279 -22 373 -61 278 -181 465 -360 560 -151 81 -397 113 -587 78 -186 -35
-398 -121 -605 -246 -151 -91 -481 -315 -655 -445 -82 -61 -188 -139 -235
-172 -47 -33 -152 -109 -235 -168 -393 -283 -663 -442 -790 -465 -74 -13 -81
-6 -91 87 -12 115 17 297 90 565 67 242 208 570 353 817 292 500 758 1039
1258 1455 662 551 1360 879 1875 881 126 0 139 -2 192 -27 162 -75 262 -225
358 -530 28 -90 65 -207 82 -260 58 -188 107 -268 190 -313 95 -52 244 -34
302 36 136 161 3 789 -250 1177 -65 100 -190 229 -283 292 -299 201 -741 253
-1231 144 -751 -168 -1499 -606 -2224 -1304 -484 -466 -948 -1084 -1182 -1575
-145 -305 -248 -614 -306 -920 -19 -101 -23 -154 -23 -330 0 -188 3 -219 23
-294 54 -197 157 -336 297 -402 273 -129 592 -54 1175 276 171 97 493 312 677
452 536 408 647 485 835 578 208 101 329 134 388 103 40 -21 78 -110 97 -228
20 -129 23 -509 5 -680 -31 -288 -99 -637 -139 -714 -10 -19 -122 -128 -248
-243 -1685 -1530 -2910 -2812 -3906 -4088 -551 -706 -926 -1278 -1204 -1834
-408 -817 -538 -1404 -401 -1807 141 -415 531 -596 1065 -493 587 113 1275
541 1941 1208 312 312 522 557 822 961 1315 1770 2069 3343 2618 5460 124 477
209 722 271 776 24 20 357 252 1124 779 995 684 1984 1390 2499 1784 66 50
121 90 122 88 2 -2 -1 -57 -7 -122 -30 -353 55 -764 214 -1030 59 -100 187
-241 285 -315 288 -217 760 -311 1275 -254 558 61 1048 219 1702 549 474 239
838 469 1340 845 306 230 644 520 844 723 l54 55 61 -34 c216 -123 630 -318
986 -464 96 -40 200 -85 230 -100 107 -54 190 -148 205 -231 23 -126 -80 -324
-457 -872 -416 -607 -584 -909 -654 -1176 -98 -377 28 -751 332 -982 61 -47
198 -112 279 -133 157 -40 351 -41 522 -1 136 32 323 139 500 289 259 218 692
710 1069 1216 286 382 733 1022 954 1362 52 81 97 147 100 147 3 1 4 -63 2
-141 -11 -464 68 -825 233 -1073 104 -157 261 -282 432 -344 136 -50 236 -64
413 -58 287 9 535 82 874 255 321 164 639 410 1045 807 490 480 1020 1115
1378 1650 198 295 203 308 163 391 -23 46 -38 58 -148 115 -79 42 -122 48
-175 26 -41 -18 -61 -42 -274 -327 -485 -649 -1038 -1284 -1435 -1647 -376
-344 -720 -576 -978 -658 -102 -32 -263 -44 -352 -26 -194 41 -334 194 -399
437 -56 209 -38 922 30 1186 31 119 54 159 163 289 681 811 1801 2232 2354
2989 918 1256 1627 2465 2114 3604 290 680 459 1233 515 1686 17 144 20 404 4
515 -49 355 -209 585 -473 681 -137 50 -340 71 -511 55z m240 -674 c65 -65 95
-263 76 -508 -58 -732 -366 -1684 -872 -2699 -506 -1013 -1153 -1983 -2434
-3645 -400 -520 -847 -1086 -853 -1080 -2 2 19 90 47 197 196 756 520 1673
920 2600 714 1659 1138 2554 1589 3358 507 903 964 1517 1294 1736 123 82 182
92 233 41z m-8971 -7161 c87 -36 89 -229 5 -479 -38 -114 -140 -324 -214 -442
-92 -147 -81 -147 -153 2 -73 153 -101 253 -108 388 -17 291 126 504 356 534
36 5 69 9 73 10 4 0 23 -5 41 -13z m-10909 -5478 c-80 -371 -199 -783 -332
-1153 -574 -1594 -1473 -3159 -2476 -4310 -156 -179 -500 -525 -687 -690 -460
-407 -885 -686 -1210 -796 -119 -40 -276 -52 -328 -25 -80 41 -112 116 -112
259 0 259 156 693 429 1192 110 200 380 651 532 887 193 300 482 700 759 1048
439 553 1164 1359 1951 2170 444 457 1449 1440 1474 1440 3 0 3 -10 0 -22z"/>
<path d="M25415 26505 c-154 -97 -199 -147 -288 -322 -207 -405 -544 -1423
-807 -2433 -38 -146 -96 -357 -129 -470 -33 -112 -59 -206 -57 -207 4 -4 193
321 307 527 447 810 814 1721 973 2415 45 200 103 531 93 541 -2 2 -43 -21
-92 -51z"/>
<path d="M12004 21516 c-104 -24 -172 -63 -260 -151 -129 -129 -194 -277 -194
-443 0 -143 49 -253 160 -356 95 -88 214 -132 380 -143 106 -7 170 10 260 68
165 107 301 305 329 479 29 183 -67 363 -250 468 -131 74 -302 106 -425 78z"/>
<path d="M28560 15899 c-430 -48 -896 -514 -1373 -1374 -118 -213 -322 -677
-922 -2090 -232 -547 -421 -973 -638 -1440 -242 -520 -659 -1330 -685 -1330
-7 0 -103 84 -215 188 l-204 187 -12 133 c-18 189 -77 659 -112 885 -181 1177
-434 2120 -806 2997 -95 223 -307 647 -411 820 -73 122 -80 130 -108 128 -79
-4 -678 -96 -742 -113 -127 -35 -161 -58 -274 -187 -367 -419 -726 -956 -1113
-1663 -732 -1338 -1300 -2472 -1602 -3200 -131 -314 -189 -589 -200 -945 -5
-165 -3 -220 11 -305 45 -267 162 -509 326 -670 113 -112 227 -172 382 -204
123 -25 215 -21 322 15 269 90 653 370 749 547 14 26 82 245 151 487 387 1362
723 2370 1049 3155 104 251 207 480 216 480 3 0 105 -285 226 -632 247 -709
295 -841 431 -1182 400 -999 794 -1719 1171 -2138 195 -218 409 -362 604 -407
65 -15 197 -13 264 4 319 82 730 471 1188 1126 547 781 1192 1965 1763 3237
584 1298 983 2348 1047 2755 30 185 17 437 -28 534 -71 157 -229 227 -455 202z"/>
<path d="M11435 15370 c-402 -39 -746 -101 -1111 -201 -215 -59 -621 -194
-899 -300 -420 -159 -617 -230 -713 -255 -96 -24 -131 -24 -327 1 -22 3 -209
27 -415 54 -206 27 -423 55 -482 61 -227 25 -471 -36 -602 -151 -29 -26 -95
-113 -165 -218 l-118 -176 5 -60 c4 -64 7 -58 -88 -230 -82 -151 -178 -401
-274 -720 -93 -304 -186 -583 -233 -691 l-40 -92 94 -27 c51 -15 97 -33 102
-39 14 -18 -209 -729 -421 -1336 -144 -412 -264 -740 -463 -1260 -553 -1446
-723 -1982 -814 -2575 -58 -375 -76 -634 -76 -1094 l0 -325 82 -66 c153 -124
221 -147 363 -125 108 16 181 44 272 104 338 221 608 790 787 1661 32 159 30
145 101 670 76 564 179 1064 280 1369 53 160 1278 2952 1400 3191 129 253 779
548 1805 819 673 179 1217 284 1648 320 494 42 737 5 811 -121 l19 -32 -69
-64 c-139 -129 -423 -293 -734 -422 -216 -90 -619 -222 -1335 -435 -342 -102
-748 -236 -895 -295 -133 -53 -366 -171 -505 -255 -468 -284 -727 -609 -763
-960 -14 -135 -1 -174 81 -251 76 -71 195 -133 371 -193 214 -74 581 -154 766
-167 104 -7 148 -18 2720 -675 231 -59 371 -100 400 -116 57 -33 354 -330 583
-583 312 -345 438 -470 535 -527 36 -22 51 -25 93 -20 187 22 322 240 359 578
21 202 -24 428 -126 630 -72 144 -219 342 -373 503 -305 319 -978 784 -1646
1136 -212 112 -875 466 -982 525 l-112 61 492 48 c505 49 706 75 977 126 608
114 1058 252 1440 441 519 258 783 576 795 959 17 562 -238 1039 -731 1368
-321 215 -694 355 -1106 418 -121 18 -622 27 -763 14z"/>
<path d="M19215 15107 c-2 -7 -139 -437 -305 -957 -165 -520 -314 -983 -330
-1030 -403 -1180 -739 -2019 -1092 -2725 -379 -757 -689 -1230 -1022 -1560
-161 -159 -277 -247 -421 -316 -119 -57 -199 -79 -314 -86 -202 -13 -354 46
-412 159 -46 91 -68 323 -44 463 39 222 189 872 520 2245 316 1313 474 1994
505 2189 31 190 -29 508 -136 718 -136 266 -380 487 -657 594 -229 88 -562
132 -753 99 -49 -9 -379 -107 -393 -117 -2 -2 -8 -56 -13 -120 -19 -262 -67
-848 -88 -1063 -12 -116 -10 -100 -45 -470 -14 -146 -34 -355 -45 -465 -11
-110 -38 -378 -60 -595 -22 -217 -42 -413 -45 -435 -3 -22 -27 -265 -55 -540
-27 -275 -52 -520 -55 -545 -37 -336 -47 -496 -41 -680 3 -107 8 -215 11 -240
57 -442 139 -793 297 -1265 182 -548 387 -919 637 -1158 147 -140 285 -218
461 -263 101 -26 361 -26 505 0 732 131 1447 692 2198 1724 626 859 1169 1880
1685 3173 299 747 519 1397 611 1804 54 239 65 321 65 480 0 137 -2 157 -27
228 -74 212 -217 424 -464 684 l-78 82 -298 0 c-225 0 -299 -3 -302 -12z"/>
</g>
</svg>
